<?xml version="1.0" encoding="utf-8"?>
<!-- Generator: Adobe Illustrator 30.1.0, SVG Export Plug-In . SVG Version: 9.03 Build 0)  -->
<svg version="1.1" id="Layer_1" xmlns="http://www.w3.org/2000/svg" xmlns:xlink="http://www.w3.org/1999/xlink" x="0px" y="0px"
	 viewBox="0 0 838 203" style="enable-background:new 0 0 838 203;" xml:space="preserve">
<style type="text/css">
	.st0{fill:#FFFFFF;}
</style>
<path class="st0" d="M55.48,19.44L55.48,19.44c19.9,0,36.04,16.14,36.04,36.04l0,0c0,19.9-16.14,36.04-36.04,36.04l0,0
	c-19.9,0-36.04-16.14-36.04-36.04l0,0C19.44,35.57,35.57,19.44,55.48,19.44z"/>
<path class="st0" d="M55.48,110.96L55.48,110.96c19.9,0,36.04,16.14,36.04,36.04l0,0c0,19.9-16.14,36.04-36.04,36.04l0,0
	c-19.9,0-36.04-16.14-36.04-36.04l0,0C19.44,127.09,35.57,110.96,55.48,110.96z"/>
<path class="st0" d="M147,19.44L147,19.44c19.9,0,36.04,16.14,36.04,36.04l0,0c0,19.9-16.14,36.04-36.04,36.04l0,0
	c-19.9,0-36.04-16.14-36.04-36.04l0,0C110.96,35.57,127.09,19.44,147,19.44z"/>
<path class="st0" d="M147,110.96L147,110.96c19.9,0,36.04,16.14,36.04,36.04l0,0c0,19.9-16.14,36.04-36.04,36.04l0,0
	c-19.9,0-36.04-16.14-36.04-36.04l0,0C110.96,127.09,127.09,110.96,147,110.96z"/>
<rect class="st0" width="19.44" height="19.44"/>
<rect y="91.52" class="st0" width="19.44" height="19.44"/>
<rect y="183.04" class="st0" width="19.44" height="19.44"/>
<rect x="91.52" class="st0" width="19.44" height="19.44"/>
<rect x="91.52" y="91.52" class="st0" width="19.44" height="19.44"/>
<rect x="91.52" y="183.04" class="st0" width="19.44" height="19.44"/>
<rect x="183.04" class="st0" width="19.44" height="19.44"/>
<rect x="183.04" y="91.52" class="st0" width="19.44" height="19.44"/>
<rect x="183.04" y="183.04" class="st0" width="19.44" height="19.44"/>
<path class="st0" d="M787.59,182.96v-50.9h14.67v11.98h0.3v38.93H787.59z M823.02,182.96v-31.54c0-2.79-0.73-4.89-2.2-6.29
	c-1.4-1.4-3.46-2.1-6.19-2.1c-2.33,0-4.42,0.53-6.29,1.6c-1.8,1.06-3.23,2.53-4.29,4.39c-1,1.86-1.5,4.06-1.5,6.59l-1.3-12.28
	c1.66-3.73,4.09-6.69,7.29-8.88c3.26-2.26,7.25-3.39,11.98-3.39c5.66,0,9.98,1.6,12.98,4.79c2.99,3.13,4.49,7.35,4.49,12.68v34.43
	H823.02z"/>
<path class="st0" d="M751.51,183.96c-5.59,0-10.51-1.1-14.77-3.29c-4.19-2.26-7.49-5.39-9.88-9.38c-2.33-4.06-3.49-8.72-3.49-13.97
	c0-5.26,1.16-9.85,3.49-13.77c2.4-3.93,5.69-6.99,9.88-9.18c4.26-2.2,9.18-3.29,14.77-3.29c5.66,0,10.58,1.1,14.77,3.29
	c4.26,2.2,7.55,5.26,9.88,9.18c2.33,3.93,3.49,8.52,3.49,13.77c0,5.26-1.2,9.91-3.59,13.97c-2.33,3.99-5.62,7.12-9.88,9.38
	C761.99,182.86,757.1,183.96,751.51,183.96z M751.51,172.18c2.33,0,4.42-0.6,6.29-1.8c1.93-1.2,3.46-2.89,4.59-5.09
	c1.13-2.26,1.7-4.96,1.7-8.09c0-4.59-1.23-8.12-3.69-10.58c-2.4-2.53-5.36-3.79-8.88-3.79c-3.53,0-6.52,1.26-8.98,3.79
	c-2.4,2.53-3.59,6.06-3.59,10.58c0,3.13,0.57,5.82,1.7,8.09c1.13,2.2,2.63,3.89,4.49,5.09
	C747.05,171.58,749.18,172.18,751.51,172.18z"/>
<path class="st0" d="M700.75,182.96v-50.9h14.97v50.9H700.75z M708.43,126.87c-2.66,0-4.96-0.93-6.89-2.79
	c-1.86-1.86-2.79-4.13-2.79-6.79c0-2.93,0.93-5.26,2.79-6.99c1.93-1.8,4.23-2.69,6.89-2.69c2.53,0,4.69,0.9,6.49,2.69
	c1.86,1.73,2.79,4.06,2.79,6.99c0,2.66-0.93,4.92-2.79,6.79C713.12,125.93,710.96,126.87,708.43,126.87z"/>
<path class="st0" d="M683.57,184.06c-6.52,0-11.38-1.56-14.57-4.69c-3.13-3.19-4.69-8.02-4.69-14.47v-48.62h14.97v49.12
	c0,2.26,0.63,3.96,1.9,5.09c1.26,1.13,3.23,1.7,5.89,1.7c1,0,1.93-0.1,2.8-0.3c0.86-0.2,1.73-0.43,2.59-0.7v11.38
	c-0.86,0.47-2.1,0.83-3.69,1.1C687.23,183.92,685.5,184.06,683.57,184.06z M654.83,143.43v-11.38h37.63v11.38H654.83z"/>
<path class="st0" d="M616.98,183.96c-4.66,0-8.72-1.07-12.18-3.19c-3.39-2.2-6.02-5.26-7.88-9.18c-1.86-3.93-2.79-8.55-2.79-13.87
	c0-5.39,0.96-10.08,2.89-14.07c1.93-3.99,4.62-7.09,8.09-9.28c3.53-2.2,7.62-3.29,12.28-3.29c4.86,0,8.78,1.13,11.78,3.39
	c3.06,2.26,4.86,5.36,5.39,9.28l-0.8,0.1v-11.78h14.67v50.9h-14.67v-11.28l1,0.2c-0.67,3.66-2.66,6.59-5.99,8.78
	C625.5,182.86,621.57,183.96,616.98,183.96z M621.77,171.98c3.66,0,6.55-1.23,8.68-3.69c2.13-2.53,3.19-6.12,3.19-10.78
	c0-4.66-1.1-8.22-3.29-10.68c-2.13-2.53-5.06-3.79-8.78-3.79c-3.66,0-6.55,1.26-8.68,3.79c-2.13,2.53-3.19,6.12-3.19,10.78
	c0,4.66,1.07,8.22,3.19,10.68C615.09,170.75,618.05,171.98,621.77,171.98z"/>
<path class="st0" d="M571.08,182.96v-11.28l1,0.2c-0.67,3.66-2.66,6.59-5.99,8.78c-3.26,2.2-7.19,3.29-11.78,3.29
	c-4.66,0-8.72-1.06-12.18-3.19c-3.39-2.2-6.02-5.26-7.89-9.18c-1.86-3.92-2.79-8.55-2.79-13.87c0-5.39,0.96-10.08,2.89-14.07
	c1.93-3.99,4.62-7.09,8.09-9.28c3.53-2.2,7.62-3.29,12.28-3.29c4.86,0,8.78,1.13,11.78,3.39c3.06,2.26,4.86,5.36,5.39,9.28l-1.1,0.1
	V111.1h14.97v71.86H571.08z M559.1,171.98c3.53,0,6.39-1.23,8.58-3.69c2.2-2.53,3.29-6.12,3.29-10.78c0-4.66-1.13-8.22-3.39-10.68
	c-2.2-2.53-5.09-3.79-8.68-3.79c-3.46,0-6.32,1.26-8.58,3.79c-2.2,2.53-3.29,6.12-3.29,10.78c0,4.66,1.1,8.22,3.29,10.68
	C552.58,170.75,555.51,171.98,559.1,171.98z"/>
<path class="st0" d="M473.25,182.96v-50.9h14.67v11.98h0.3v38.93H473.25z M508.69,182.96v-31.54c0-2.79-0.73-4.89-2.2-6.29
	c-1.4-1.4-3.46-2.1-6.19-2.1c-2.33,0-4.42,0.53-6.29,1.6c-1.8,1.06-3.23,2.53-4.29,4.39c-1,1.86-1.5,4.06-1.5,6.59l-1.3-12.28
	c1.66-3.73,4.09-6.69,7.29-8.88c3.26-2.26,7.25-3.39,11.98-3.39c5.65,0,9.98,1.6,12.98,4.79c2.99,3.13,4.49,7.35,4.49,12.68v34.43
	H508.69z"/>
<path class="st0" d="M428.71,183.96c-3.59,0-6.69-0.76-9.28-2.3c-2.53-1.6-4.46-3.69-5.79-6.29c-1.33-2.66-2-5.62-2-8.88v-34.43
	h14.97v31.54c0,2.8,0.7,4.89,2.1,6.29s3.36,2.1,5.89,2.1c2.26,0,4.26-0.53,5.99-1.6c1.73-1.07,3.09-2.53,4.09-4.39
	c1.07-1.93,1.6-4.12,1.6-6.59l1.3,12.28c-1.66,3.66-4.09,6.62-7.29,8.88C437.09,182.83,433.23,183.96,428.71,183.96z M446.57,182.96
	v-11.98h-0.3v-38.92h14.97v50.9H446.57z"/>
<path class="st0" d="M376.16,183.96c-5.59,0-10.51-1.1-14.77-3.29c-4.19-2.26-7.49-5.39-9.88-9.38c-2.33-4.06-3.49-8.72-3.49-13.97
	c0-5.26,1.16-9.85,3.49-13.77c2.4-3.93,5.69-6.99,9.88-9.18c4.26-2.2,9.18-3.29,14.77-3.29c5.65,0,10.58,1.1,14.77,3.29
	c4.26,2.2,7.55,5.26,9.88,9.18c2.33,3.93,3.49,8.52,3.49,13.77c0,5.26-1.2,9.91-3.59,13.97c-2.33,3.99-5.62,7.12-9.88,9.38
	C386.64,182.86,381.74,183.96,376.16,183.96z M376.16,172.18c2.33,0,4.42-0.6,6.29-1.8c1.93-1.2,3.46-2.89,4.59-5.09
	c1.13-2.26,1.7-4.96,1.7-8.09c0-4.59-1.23-8.12-3.69-10.58c-2.4-2.53-5.36-3.79-8.88-3.79c-3.53,0-6.52,1.26-8.98,3.79
	c-2.39,2.53-3.59,6.06-3.59,10.58c0,3.13,0.57,5.82,1.7,8.09c1.13,2.2,2.63,3.89,4.49,5.09
	C371.7,171.58,373.83,172.18,376.16,172.18z"/>
<path class="st0" d="M293.59,182.96V111.1h15.37v71.86H293.59z M300.78,155.11v-11.78H342v11.78H300.78z M300.78,122.87V111.1h43.52
	v11.78H300.78z"/>
<path class="st0" d="M760.76,91.35V19.49h15.37v71.86H760.76z"/>
<path class="st0" d="M684.68,91.35l25.75-71.86h13.18l-23.66,71.86H684.68z M737.38,91.35l-23.55-71.86h13.77l25.75,71.86H737.38z
	 M698.25,63.51h40.32v11.98h-40.32V63.51z"/>
<path class="st0" d="M636.28,92.35c-5.32,0-10.02-1.13-14.07-3.39c-4.06-2.26-7.25-5.39-9.58-9.38c-2.26-3.99-3.39-8.55-3.39-13.67
	c0-5.12,1.13-9.68,3.39-13.67c2.33-3.99,5.52-7.12,9.58-9.38c4.06-2.26,8.75-3.39,14.07-3.39c4.46,0,8.45,0.83,11.98,2.5
	c3.59,1.6,6.52,3.83,8.78,6.69c2.33,2.86,3.83,6.22,4.49,10.08h-14.47c-0.73-2.46-2.06-4.33-3.99-5.59c-1.86-1.26-4.06-1.9-6.59-1.9
	c-2.4,0-4.49,0.6-6.29,1.8c-1.73,1.2-3.06,2.89-3.99,5.09c-0.93,2.2-1.4,4.79-1.4,7.79c0,2.99,0.47,5.59,1.4,7.79
	c0.93,2.2,2.26,3.89,3.99,5.09c1.8,1.2,3.89,1.8,6.29,1.8c2.53,0,4.72-0.63,6.59-1.9c1.93-1.26,3.26-3.13,3.99-5.59h14.47
	c-0.66,3.86-2.16,7.22-4.49,10.08c-2.26,2.86-5.19,5.12-8.78,6.79C644.72,91.56,640.73,92.35,636.28,92.35z"/>
<path class="st0" d="M586.61,91.36v-50.9h14.97v50.9H586.61z M594.29,35.26c-2.66,0-4.96-0.93-6.89-2.79
	c-1.86-1.86-2.8-4.13-2.8-6.79c0-2.93,0.93-5.26,2.8-6.99c1.93-1.8,4.22-2.69,6.89-2.69c2.53,0,4.69,0.9,6.49,2.69
	c1.86,1.73,2.8,4.06,2.8,6.99c0,2.66-0.93,4.92-2.8,6.79C598.99,34.33,596.82,35.26,594.29,35.26z"/>
<path class="st0" d="M569.44,92.45c-6.52,0-11.38-1.56-14.57-4.69c-3.13-3.19-4.69-8.02-4.69-14.47V24.67h14.97v49.12
	c0,2.26,0.63,3.96,1.9,5.09c1.26,1.13,3.23,1.7,5.89,1.7c1,0,1.93-0.1,2.79-0.3s1.73-0.43,2.59-0.7v11.38
	c-0.86,0.47-2.1,0.83-3.69,1.1C573.1,92.32,571.37,92.45,569.44,92.45z M540.69,51.83V40.45h37.63v11.38H540.69z"/>
<path class="st0" d="M485.63,91.36v-50.9h14.67v11.98h0.3v38.93H485.63z M521.06,91.36V59.82c0-2.79-0.73-4.89-2.2-6.29
	c-1.4-1.4-3.46-2.1-6.19-2.1c-2.33,0-4.43,0.53-6.29,1.6c-1.8,1.06-3.23,2.53-4.29,4.39c-1,1.86-1.5,4.06-1.5,6.59l-1.3-12.28
	c1.66-3.73,4.09-6.69,7.29-8.88c3.26-2.26,7.25-3.39,11.98-3.39c5.66,0,9.98,1.6,12.98,4.79c2.99,3.13,4.49,7.35,4.49,12.68v34.43
	H521.06z"/>
<path class="st0" d="M452.27,92.35c-5.65,0-10.58-1.1-14.77-3.29c-4.19-2.26-7.45-5.39-9.78-9.38c-2.26-3.99-3.39-8.58-3.39-13.77
	c0-5.26,1.13-9.85,3.39-13.77c2.33-3.99,5.56-7.09,9.68-9.28c4.12-2.26,8.92-3.39,14.37-3.39c5.26,0,9.82,1.06,13.67,3.19
	c3.86,2.13,6.85,5.09,8.98,8.88c2.13,3.79,3.19,8.25,3.19,13.37c0,1.06-0.03,2.06-0.1,2.99c-0.07,0.87-0.17,1.7-0.3,2.5h-44.12
	v-9.88h32.04l-2.6,1.8c0-4.13-1-7.15-2.99-9.08c-1.93-2-4.59-2.99-7.98-2.99c-3.93,0-6.99,1.33-9.18,3.99
	c-2.13,2.66-3.19,6.65-3.19,11.98c0,5.19,1.06,9.05,3.19,11.58c2.2,2.53,5.46,3.79,9.78,3.79c2.4,0,4.46-0.4,6.19-1.2
	c1.73-0.8,3.03-2.1,3.89-3.89h14.07c-1.66,4.92-4.52,8.82-8.58,11.68C463.75,90.96,458.6,92.35,452.27,92.35z"/>
<path class="st0" d="M389.1,112.81c-7.05,0-12.81-1.5-17.27-4.49c-4.39-2.99-6.99-7.05-7.79-12.18h14.17
	c0.53,1.26,1.66,2.23,3.39,2.89c1.8,0.67,4.06,1,6.79,1c4.52,0,7.82-0.87,9.88-2.6c2.06-1.73,3.09-4.42,3.09-8.08V78.28l0.8,0.2
	c-0.67,3.73-2.6,6.69-5.79,8.88c-3.19,2.13-7.15,3.19-11.88,3.19c-4.52,0-8.48-1.03-11.88-3.09c-3.33-2.13-5.92-5.09-7.79-8.88
	c-1.86-3.79-2.79-8.25-2.79-13.37c0-5.19,0.96-9.71,2.89-13.57c1.93-3.86,4.62-6.85,8.08-8.98c3.53-2.13,7.62-3.19,12.28-3.19
	c4.79,0,8.68,1.13,11.68,3.39c3.06,2.26,4.86,5.36,5.39,9.28l-0.7,0.1V40.45h14.67v48.71c0,7.32-2.43,13.07-7.29,17.27
	C404.21,110.68,397.55,112.81,389.1,112.81z M389.7,79.08c3.53,0,6.39-1.2,8.58-3.59c2.2-2.46,3.29-5.96,3.29-10.48
	c0-4.52-1.13-7.98-3.39-10.38c-2.2-2.46-5.09-3.69-8.68-3.69c-3.46,0-6.32,1.23-8.58,3.69c-2.2,2.46-3.29,5.96-3.29,10.48
	c0,4.52,1.1,7.98,3.29,10.38C383.18,77.88,386.11,79.08,389.7,79.08z"/>
<path class="st0" d="M291,91.35l25.75-71.86h13.17l-23.65,71.86H291z M343.7,91.35l-23.55-71.86h13.77l25.75,71.86H343.7z
	 M304.57,63.51h40.32v11.98h-40.32V63.51z"/>
</svg>
