<?xml version="1.0" encoding="utf-8"?>
<!-- Generator: Adobe Illustrator 30.1.0, SVG Export Plug-In . SVG Version: 9.03 Build 0)  -->
<svg version="1.1" id="Layer_1" xmlns="http://www.w3.org/2000/svg" xmlns:xlink="http://www.w3.org/1999/xlink" x="0px" y="0px"
	 viewBox="0 0 307 68" style="enable-background:new 0 0 307 68;" xml:space="preserve">
<style type="text/css">
	.st0{fill:#FFFFFF;}
</style>
<path class="st0" d="M118.5,11.52h7.04l-3.52-9.02L118.5,11.52z M128.35,18.73l-1.88-4.81h-8.9l-1.88,4.81h-2.72l7.41-18.69h3.42
	l7.34,18.69L128.35,18.73L128.35,18.73z"/>
<path class="st0" d="M132.28,18.73V5.38h2.39v2.93c0.26-0.95,0.75-1.71,1.45-2.25s1.51-0.82,2.42-0.82h1.2V7.7h-1.07
	c-1.2,0-2.14,0.38-2.83,1.14c-0.69,0.76-1.03,1.81-1.03,3.13v6.75L132.28,18.73L132.28,18.73z"/>
<path class="st0" d="M149.89,18.73h-3.2c-0.93,0-1.65-0.25-2.17-0.77c-0.51-0.51-0.77-1.23-0.77-2.16V7.58h-2.93V5.39h2.93V1.06
	h2.54v4.33h3.19v2.19h-3.19v7.82c0,0.4,0.07,0.68,0.24,0.83c0.15,0.16,0.44,0.24,0.83,0.24h2.53L149.89,18.73L149.89,18.73z"/>
<path class="st0" d="M151.57,5.38h2.53v13.34h-2.53V5.38z M151.42,2.99V0.04h2.8v2.95L151.42,2.99L151.42,2.99z"/>
<path class="st0" d="M167.38,2.99V0.04h2.8v2.95L167.38,2.99L167.38,2.99z M158.58,18.73V7.57h-2.93V5.38h2.93V2.84
	c0-1.87,0.93-2.8,2.8-2.8h3.74v2.22h-2.93c-0.4,0-0.68,0.07-0.83,0.24c-0.15,0.15-0.24,0.44-0.24,0.83v2.06h8.94v13.34h-2.54V7.57
	h-6.39v11.15L158.58,18.73L158.58,18.73z"/>
<path class="st0" d="M178.08,18.99c-1.3,0.02-2.45-0.28-3.43-0.89c-0.99-0.61-1.73-1.44-2.24-2.49c-0.51-1.04-0.75-2.23-0.73-3.55
	c-0.02-1.32,0.22-2.5,0.73-3.55c0.51-1.04,1.26-1.88,2.24-2.49c0.99-0.61,2.13-0.91,3.43-0.89c1.52,0,2.78,0.42,3.78,1.26
	c1,0.84,1.57,1.97,1.69,3.4h-2.54c-0.12-0.76-0.44-1.38-0.95-1.84c-0.51-0.47-1.14-0.7-1.88-0.7h-0.22
	c-1.18-0.02-2.11,0.44-2.77,1.37c-0.67,0.93-1,2.08-0.98,3.44c-0.02,1.37,0.31,2.52,0.98,3.45c0.67,0.92,1.6,1.38,2.77,1.36h0.22
	c0.74,0,1.36-0.23,1.88-0.7c0.51-0.47,0.83-1.08,0.95-1.84h2.54c-0.13,1.42-0.69,2.56-1.69,3.4
	C180.85,18.57,179.6,18.99,178.08,18.99z"/>
<path class="st0" d="M185.07,5.38h2.53v13.34h-2.53V5.38z M184.93,2.99V0.04h2.8v2.95L184.93,2.99L184.93,2.99z"/>
<path class="st0" d="M193.91,16.87h0.21c0.53,0.01,1.09-0.13,1.66-0.4c0.57-0.28,1.05-0.64,1.44-1.11c0.38-0.47,0.56-0.95,0.55-1.44
	v-1.34l-3.34,0.25c-0.82,0.07-1.46,0.3-1.95,0.67c-0.48,0.37-0.72,0.85-0.72,1.44c0,0.55,0.2,1,0.61,1.37
	C192.77,16.68,193.29,16.87,193.91,16.87 M200.41,18.73h-2.4c-0.09-0.42-0.13-1.14-0.13-2.14c-0.29,0.65-0.82,1.21-1.61,1.69
	c-0.79,0.47-1.68,0.71-2.66,0.71c-1.24,0.02-2.29-0.36-3.15-1.13c-0.86-0.77-1.27-1.71-1.26-2.82c0-1.36,0.48-2.37,1.43-3.01
	c0.94-0.63,2.08-1,3.43-1.12l3.69-0.29v-0.43c0-0.93-0.25-1.65-0.74-2.17c-0.49-0.52-1.17-0.78-2.04-0.78h-0.22
	c-0.75,0-1.37,0.18-1.88,0.53c-0.5,0.35-0.79,0.84-0.87,1.48h-2.53c0.06-1.2,0.6-2.19,1.62-2.98c1.02-0.79,2.27-1.17,3.76-1.15
	c1.66-0.02,2.99,0.47,3.97,1.45c0.98,0.98,1.46,2.19,1.45,3.62v5.6C200.28,17.15,200.33,18.13,200.41,18.73z"/>
<path class="st0" d="M205.22,0.04h-2.53v18.69h2.53V0.04z"/>
<path class="st0" d="M121.1,42.31c-2.24,0-4.01-0.54-5.31-1.61c-1.3-1.08-1.97-2.63-2.03-4.66h2.67c0,1.22,0.44,2.18,1.3,2.85
	c0.86,0.68,2.02,1.02,3.47,1.02h0.28c1.19,0,2.13-0.26,2.83-0.79c0.69-0.53,1.04-1.2,1.04-2.01c0-0.76-0.24-1.36-0.72-1.81
	c-0.48-0.46-1.22-0.79-2.22-0.98l-2.99-0.61c-3.16-0.64-4.73-2.39-4.73-5.25c-0.02-1.48,0.6-2.76,1.87-3.81
	c1.28-1.05,2.88-1.57,4.81-1.54c2.06,0,3.71,0.53,4.95,1.58c1.24,1.06,1.9,2.48,1.96,4.28h-2.68c-0.06-1.04-0.47-1.88-1.24-2.51
	c-0.76-0.64-1.72-0.95-2.86-0.95h-0.28c-1.12,0-2.06,0.28-2.78,0.83c-0.73,0.55-1.09,1.24-1.09,2.08c0,0.69,0.22,1.26,0.67,1.71
	c0.45,0.44,1.08,0.75,1.9,0.91l2.98,0.59c3.4,0.66,5.1,2.46,5.1,5.4c0.02,1.6-0.61,2.89-1.9,3.86
	C124.83,41.85,123.16,42.33,121.1,42.31"/>
<path class="st0" d="M134.84,42.31c-1.44,0-2.56-0.44-3.36-1.31c-0.79-0.87-1.19-2.03-1.19-3.48v-8.81h2.54v8.28
	c0,2.14,0.9,3.21,2.7,3.21h0.21c0.9,0.02,1.68-0.38,2.36-1.19c0.68-0.82,1.01-1.84,1.01-3.08v-7.2h2.54v13.34h-2.54v-2.54
	c-0.27,0.79-0.77,1.45-1.51,1.99C136.85,42.05,135.93,42.32,134.84,42.31"/>
<path class="st0" d="M150.34,40.19h0.21c1.07,0,1.94-0.42,2.62-1.26c0.68-0.84,1.02-2.02,1.02-3.55s-0.34-2.7-1.02-3.55
	c-0.68-0.84-1.55-1.26-2.62-1.26h-0.21c-1.03-0.02-1.91,0.41-2.66,1.29c-0.75,0.88-1.12,2.06-1.1,3.52
	c-0.02,1.47,0.35,2.64,1.1,3.52C148.43,39.78,149.32,40.2,150.34,40.19z M144.05,47.4V28.7h2.53v1.87c0.32-0.6,0.91-1.1,1.76-1.51
	c0.85-0.41,1.73-0.61,2.65-0.61c1.69-0.02,3.08,0.6,4.15,1.87c1.07,1.26,1.6,2.95,1.59,5.07c0.02,2.08-0.54,3.77-1.69,5.05
	c-1.15,1.27-2.59,1.91-4.3,1.89c-0.92,0-1.75-0.2-2.5-0.6c-0.76-0.4-1.3-0.91-1.64-1.53v7.21H144.05z"/>
<path class="st0" d="M160.78,33.77h6.65c-0.05-1.08-0.36-1.88-0.92-2.42c-0.56-0.52-1.25-0.78-2.08-0.78h-0.22
	c-0.78,0-1.48,0.25-2.12,0.77C161.43,31.86,161,32.67,160.78,33.77z M164.38,42.31c-0.86,0.01-1.66-0.14-2.42-0.45
	c-0.76-0.31-1.43-0.75-2.01-1.33c-0.59-0.57-1.04-1.3-1.37-2.2c-0.33-0.9-0.49-1.89-0.49-2.99c-0.02-1.07,0.14-2.05,0.49-2.94
	c0.35-0.89,0.81-1.62,1.39-2.2c0.58-0.57,1.25-1.02,2-1.33c0.75-0.31,1.53-0.46,2.33-0.45c1.69-0.02,3.07,0.51,4.12,1.61
	c1.05,1.1,1.57,2.52,1.55,4.25v1.48h-9.35c0.02,0.69,0.16,1.33,0.39,1.9c0.23,0.57,0.53,1.04,0.88,1.39
	c0.36,0.36,0.75,0.63,1.17,0.83c0.43,0.2,0.86,0.29,1.27,0.28h0.22c0.72,0,1.34-0.18,1.85-0.55c0.52-0.37,0.84-0.88,0.97-1.53h2.53
	c-0.22,1.3-0.85,2.32-1.88,3.07c-1.02,0.76-2.24,1.14-3.66,1.14"/>
<path class="st0" d="M172.18,42.05V28.71h2.4v2.93c0.26-0.95,0.75-1.71,1.45-2.25c0.71-0.55,1.51-0.82,2.42-0.82h1.2v2.45h-1.07
	c-1.2,0-2.14,0.38-2.83,1.14c-0.69,0.76-1.03,1.81-1.03,3.13v6.75L172.18,42.05L172.18,42.05z"/>
<path class="st0" d="M181.15,28.7h2.53v13.34h-2.53V28.7z M181.01,23.37h2.8v2.95h-2.8V23.37z"/>
<path class="st0" d="M186.63,42.05V28.71h2.53v1.87c0.96-1.42,2.39-2.12,4.27-2.12c1.49,0,2.67,0.42,3.52,1.26
	c0.85,0.84,1.27,1.97,1.27,3.4v8.94h-2.53v-8.4c0-0.99-0.22-1.75-0.68-2.28c-0.45-0.53-1.12-0.79-2.02-0.79h-0.21
	c-0.99-0.02-1.85,0.35-2.57,1.11c-0.73,0.76-1.08,1.72-1.06,2.9v7.47L186.63,42.05L186.63,42.05z"/>
<path class="st0" d="M208.45,42.05h-3.2c-0.93,0-1.65-0.25-2.16-0.77c-0.51-0.51-0.77-1.23-0.77-2.16V30.9h-2.93v-2.19h2.93v-4.33
	h2.54v4.33h3.19v2.19h-3.19v7.82c0,0.4,0.07,0.68,0.24,0.83c0.15,0.15,0.44,0.24,0.83,0.24h2.53L208.45,42.05L208.45,42.05z"/>
<path class="st0" d="M211.87,33.77h6.65c-0.05-1.08-0.36-1.88-0.93-2.42c-0.56-0.52-1.25-0.78-2.08-0.78h-0.22
	c-0.78,0-1.48,0.25-2.12,0.77C212.51,31.86,212.09,32.67,211.87,33.77z M215.47,42.31c-0.85,0.01-1.66-0.14-2.42-0.45
	c-0.76-0.31-1.43-0.75-2.01-1.33c-0.58-0.57-1.04-1.3-1.37-2.2c-0.33-0.9-0.49-1.89-0.49-2.99c-0.02-1.07,0.14-2.05,0.49-2.94
	c0.35-0.89,0.81-1.62,1.39-2.2c0.59-0.57,1.25-1.02,2-1.33c0.75-0.31,1.53-0.46,2.33-0.45c1.69-0.02,3.07,0.51,4.12,1.61
	c1.05,1.1,1.57,2.52,1.55,4.25v1.48h-9.35c0.02,0.69,0.15,1.33,0.39,1.9c0.24,0.57,0.53,1.04,0.88,1.39
	c0.36,0.36,0.75,0.63,1.17,0.83c0.43,0.2,0.86,0.29,1.27,0.28h0.22c0.72,0,1.34-0.18,1.86-0.55c0.52-0.37,0.84-0.88,0.97-1.53h2.53
	c-0.22,1.3-0.85,2.32-1.88,3.07c-1.03,0.76-2.25,1.14-3.67,1.14"/>
<path class="st0" d="M225.81,23.37h-2.53v18.69h2.53V23.37z"/>
<path class="st0" d="M231.28,23.37h-2.53v18.69h2.53V23.37z"/>
<path class="st0" d="M234.22,28.7h2.53v13.34h-2.53V28.7z M234.08,23.37h2.8v2.95h-2.8V23.37z"/>
<path class="st0" d="M244.95,39.92h0.21c0.97,0.02,1.84-0.42,2.59-1.3c0.76-0.88,1.12-2.01,1.09-3.36c0.01-1.37-0.34-2.5-1.04-3.38
	c-0.71-0.88-1.54-1.31-2.5-1.3h-0.22c-1.05,0-1.92,0.4-2.6,1.19c-0.68,0.79-1.02,1.96-1.02,3.48s0.32,2.71,0.96,3.49
	C243.05,39.52,243.9,39.91,244.95,39.92 M244.84,47.93c-1.8,0-3.25-0.38-4.35-1.14c-1.1-0.76-1.72-1.76-1.84-3.01h2.53
	c0.13,0.64,0.51,1.14,1.14,1.48c0.63,0.34,1.42,0.52,2.39,0.52h0.26c1.22,0,2.18-0.34,2.85-1.01s1.02-1.67,1.02-2.99V39.9
	c-0.39,0.64-0.94,1.15-1.63,1.54c-0.69,0.4-1.48,0.59-2.37,0.59c-0.8,0.01-1.56-0.13-2.27-0.42c-0.71-0.29-1.34-0.71-1.9-1.27
	c-0.55-0.55-0.99-1.27-1.3-2.16c-0.31-0.88-0.47-1.87-0.46-2.95c-0.01-1.09,0.14-2.08,0.46-2.96c0.32-0.88,0.74-1.6,1.28-2.15
	c0.54-0.56,1.17-0.98,1.89-1.27c0.72-0.29,1.48-0.43,2.3-0.42c0.91,0,1.73,0.21,2.47,0.61c0.74,0.41,1.24,0.91,1.53,1.5v-1.87h2.54
	v13.34c0.02,1.7-0.57,3.11-1.77,4.23c-1.19,1.14-2.78,1.69-4.76,1.66"/>
<path class="st0" d="M256.21,33.77h6.65c-0.05-1.08-0.36-1.88-0.92-2.42c-0.56-0.52-1.25-0.78-2.08-0.78h-0.22
	c-0.78,0-1.48,0.25-2.12,0.77C256.86,31.86,256.43,32.67,256.21,33.77z M259.8,42.31c-0.85,0.01-1.66-0.14-2.42-0.45
	c-0.76-0.31-1.43-0.75-2.01-1.33c-0.59-0.57-1.04-1.3-1.37-2.2c-0.33-0.9-0.49-1.89-0.49-2.99c-0.02-1.07,0.14-2.05,0.49-2.94
	c0.34-0.89,0.81-1.62,1.39-2.2c0.59-0.57,1.25-1.02,2-1.33c0.75-0.31,1.53-0.46,2.33-0.45c1.69-0.02,3.07,0.51,4.12,1.61
	c1.05,1.1,1.57,2.52,1.55,4.25v1.48h-9.35c0.02,0.69,0.15,1.33,0.39,1.9c0.24,0.57,0.53,1.04,0.88,1.39
	c0.36,0.36,0.75,0.63,1.17,0.83c0.42,0.2,0.86,0.29,1.27,0.28h0.22c0.72,0,1.34-0.18,1.86-0.55c0.52-0.37,0.84-0.88,0.97-1.53h2.53
	c-0.22,1.3-0.85,2.32-1.88,3.07c-1.03,0.76-2.25,1.14-3.67,1.14"/>
<path class="st0" d="M267.61,42.05V28.71h2.53v1.87c0.96-1.42,2.39-2.12,4.27-2.12c1.49,0,2.67,0.42,3.52,1.26
	c0.85,0.84,1.27,1.98,1.27,3.4v8.94h-2.53v-8.4c0-0.99-0.22-1.75-0.68-2.28c-0.45-0.53-1.12-0.79-2.02-0.79h-0.21
	c-0.99-0.02-1.85,0.35-2.57,1.11c-0.73,0.76-1.08,1.72-1.06,2.91v7.47L267.61,42.05L267.61,42.05z"/>
<path class="st0" d="M287.63,42.31c-1.3,0.02-2.45-0.28-3.43-0.89c-0.99-0.61-1.73-1.44-2.24-2.49c-0.51-1.04-0.75-2.23-0.74-3.55
	c-0.02-1.32,0.22-2.5,0.74-3.55c0.51-1.04,1.26-1.88,2.24-2.49c0.99-0.61,2.13-0.91,3.43-0.89c1.52,0,2.78,0.42,3.78,1.26
	c1,0.84,1.57,1.97,1.69,3.4h-2.54c-0.12-0.76-0.44-1.38-0.95-1.84c-0.51-0.47-1.14-0.7-1.88-0.7h-0.22
	c-1.18-0.02-2.11,0.44-2.77,1.37c-0.67,0.93-1,2.08-0.98,3.44c-0.02,1.37,0.31,2.52,0.98,3.45c0.67,0.92,1.6,1.38,2.77,1.36h0.22
	c0.73,0,1.36-0.23,1.88-0.7c0.51-0.47,0.83-1.08,0.95-1.84h2.54c-0.13,1.42-0.69,2.56-1.69,3.4
	C290.42,41.89,289.15,42.31,287.63,42.31z"/>
<path class="st0" d="M297.06,33.77h6.65c-0.05-1.08-0.36-1.88-0.92-2.42c-0.55-0.52-1.25-0.78-2.08-0.78h-0.22
	c-0.77,0-1.48,0.25-2.12,0.77C297.71,31.86,297.28,32.67,297.06,33.77z M300.65,42.31c-0.85,0.01-1.66-0.14-2.42-0.45
	c-0.76-0.31-1.43-0.75-2.01-1.33c-0.58-0.57-1.04-1.3-1.37-2.2c-0.33-0.9-0.49-1.89-0.49-2.99c-0.02-1.07,0.14-2.05,0.49-2.94
	c0.35-0.89,0.81-1.62,1.39-2.2c0.59-0.57,1.25-1.02,2-1.33c0.75-0.31,1.53-0.46,2.33-0.45c1.69-0.02,3.07,0.51,4.12,1.61
	c1.05,1.1,1.57,2.52,1.55,4.25v1.48h-9.35c0.02,0.69,0.15,1.33,0.39,1.9c0.23,0.57,0.53,1.04,0.88,1.39
	c0.36,0.36,0.75,0.63,1.17,0.83c0.42,0.2,0.86,0.29,1.27,0.28h0.22c0.72,0,1.34-0.18,1.86-0.55c0.52-0.37,0.84-0.88,0.98-1.53h2.53
	c-0.22,1.3-0.85,2.32-1.88,3.07c-1.02,0.76-2.24,1.14-3.66,1.14"/>
<path class="st0" d="M122.03,50.86l3.51,9.02h-7.04L122.03,50.86L122.03,50.86z M120.37,48.41l-7.41,18.69h2.72l1.88-4.81h8.9
	l1.88,4.81h2.77l-7.34-18.69H120.37L120.37,48.41z"/>
<path class="st0" d="M135.34,48.4h-2.53v18.69h2.53V48.4z"/>
<path class="st0" d="M140.82,48.4h-2.53v18.69h2.53V48.4z"/>
<path class="st0" d="M144.05,67.09h2.53V53.75h-2.53V67.09z M144,51.26h2.62V48.4H144V51.26z"/>
<path class="st0" d="M153.13,65.23h0.21c0.53,0.01,1.09-0.13,1.66-0.4c0.57-0.28,1.05-0.64,1.44-1.11c0.38-0.47,0.56-0.95,0.55-1.44
	v-1.34l-3.34,0.25c-0.82,0.07-1.46,0.3-1.95,0.67c-0.48,0.37-0.72,0.85-0.72,1.44c0,0.55,0.2,1,0.61,1.37
	C151.99,65.04,152.51,65.23,153.13,65.23 M159.63,67.09h-2.4c-0.09-0.42-0.13-1.14-0.13-2.14c-0.29,0.65-0.82,1.21-1.61,1.69
	c-0.79,0.47-1.68,0.71-2.66,0.71c-1.24,0.02-2.29-0.36-3.15-1.13c-0.85-0.77-1.27-1.71-1.26-2.82c0-1.36,0.48-2.37,1.43-3.01
	c0.94-0.63,2.08-1,3.43-1.12l3.69-0.29v-0.43c0-0.93-0.25-1.65-0.74-2.17c-0.49-0.52-1.17-0.78-2.04-0.78h-0.22
	c-0.75,0-1.37,0.18-1.88,0.53c-0.5,0.35-0.79,0.84-0.87,1.48h-2.53c0.06-1.2,0.6-2.19,1.62-2.98s2.27-1.17,3.76-1.15
	c1.66-0.02,2.99,0.47,3.97,1.45c0.98,0.98,1.46,2.19,1.45,3.62v5.6C159.5,65.51,159.54,66.49,159.63,67.09z"/>
<path class="st0" d="M162.3,67.09V53.75h2.53v1.87c0.96-1.42,2.39-2.12,4.27-2.12c1.49,0,2.67,0.42,3.52,1.26
	c0.85,0.84,1.27,1.97,1.27,3.4v8.94h-2.53v-8.4c0-0.99-0.22-1.75-0.68-2.28c-0.45-0.53-1.12-0.79-2.02-0.79h-0.21
	c-0.99-0.02-1.85,0.35-2.57,1.11c-0.73,0.76-1.08,1.72-1.06,2.9v7.47L162.3,67.09L162.3,67.09z"/>
<path class="st0" d="M182.32,67.35c-1.3,0.02-2.45-0.28-3.43-0.89c-0.99-0.61-1.73-1.44-2.24-2.49c-0.51-1.04-0.75-2.23-0.73-3.55
	c-0.02-1.32,0.22-2.5,0.73-3.55c0.51-1.04,1.26-1.88,2.24-2.49c0.99-0.61,2.13-0.91,3.43-0.89c1.52,0,2.78,0.42,3.78,1.26
	c1,0.84,1.57,1.97,1.69,3.4h-2.55c-0.12-0.76-0.44-1.38-0.95-1.84c-0.51-0.47-1.14-0.7-1.88-0.7h-0.22
	c-1.18-0.02-2.11,0.44-2.77,1.37c-0.67,0.93-1,2.08-0.98,3.44c-0.02,1.37,0.31,2.52,0.98,3.45c0.67,0.92,1.6,1.38,2.77,1.36h0.22
	c0.74,0,1.36-0.23,1.88-0.7c0.51-0.46,0.83-1.08,0.95-1.84h2.54c-0.13,1.42-0.69,2.56-1.69,3.4
	C185.1,66.93,183.84,67.35,182.32,67.35z"/>
<path class="st0" d="M191.75,58.82h6.65c-0.05-1.08-0.36-1.88-0.92-2.42c-0.56-0.52-1.25-0.78-2.08-0.78h-0.22
	c-0.77,0-1.48,0.25-2.12,0.77C192.4,56.9,191.97,57.72,191.75,58.82z M195.34,67.35c-0.85,0.01-1.66-0.14-2.42-0.45
	c-0.76-0.31-1.43-0.75-2.01-1.33c-0.59-0.57-1.04-1.3-1.37-2.2c-0.33-0.9-0.49-1.89-0.49-2.99c-0.02-1.07,0.14-2.05,0.49-2.94
	c0.34-0.89,0.81-1.62,1.39-2.2c0.59-0.57,1.25-1.02,2-1.33c0.75-0.31,1.53-0.46,2.33-0.45c1.69-0.02,3.07,0.51,4.12,1.61
	c1.05,1.1,1.57,2.52,1.55,4.25v1.48h-9.35c0.02,0.69,0.15,1.33,0.39,1.9c0.24,0.57,0.53,1.04,0.88,1.39
	c0.36,0.36,0.75,0.63,1.17,0.83c0.43,0.2,0.85,0.29,1.27,0.28h0.22c0.72,0,1.34-0.18,1.86-0.55c0.52-0.37,0.84-0.88,0.97-1.53h2.53
	c-0.22,1.3-0.85,2.32-1.88,3.07c-1.03,0.76-2.26,1.14-3.67,1.14"/>
<path class="st0" d="M0.04,33.41c0-6.14,4.98-11.13,11.12-11.13c6.14,0,11.13-4.98,11.13-11.12S27.27,0.04,33.41,0.04
	s11.12,4.98,11.12,11.13s-4.98,11.12-11.12,11.12s-11.13,4.98-11.13,11.13s4.98,11.12,11.13,11.12s11.12,4.98,11.12,11.13
	s-4.98,11.12-11.12,11.12S22.29,61.8,22.29,55.66S17.3,44.53,11.16,44.53C5.02,44.53,0.04,39.56,0.04,33.41z"/>
<path class="st0" d="M99.76,33.41c0,6.14-4.98,11.13-11.12,11.13s-11.13,4.98-11.13,11.12c0,6.14-4.98,11.13-11.13,11.13
	S55.26,61.8,55.26,55.65c0-6.14,4.98-11.12,11.12-11.12s11.13-4.98,11.13-11.13s-4.98-11.12-11.13-11.12S55.26,17.3,55.26,11.16
	c0-6.14,4.98-11.12,11.12-11.12s11.13,4.98,11.13,11.12c0,6.14,4.98,11.13,11.13,11.13S99.76,27.26,99.76,33.41z"/>
<path class="st0" d="M50,44.05c5.97,0,10.81-4.84,10.81-10.81S55.97,22.43,50,22.43c-5.97,0-10.81,4.84-10.81,10.81
	S44.03,44.05,50,44.05z"/>
</svg>
