<svg width="44" height="40" viewBox="0 0 44 40" fill="none" xmlns="http://www.w3.org/2000/svg">
<path d="M1 24.2222L43 24.2222M13.6 39H30.4M11.08 32.6667H32.92C36.4483 32.6667 38.2125 32.6667 39.5601 31.9764C40.7456 31.3692 41.7093 30.4003 42.3133 29.2086C43 27.8538 43 26.0803 43 22.5333V11.1333C43 7.58633 43 5.81283 42.3133 4.45806C41.7093 3.26637 40.7456 2.29749 39.5601 1.69029C38.2125 1 36.4483 1 32.92 1H11.08C7.55167 1 5.7875 1 4.43986 1.69029C3.25444 2.29749 2.29066 3.26637 1.68666 4.45806C1 5.81283 1 7.58633 1 11.1333V22.5333C1 26.0803 1 27.8538 1.68666 29.2086C2.29066 30.4003 3.25444 31.3692 4.43986 31.9764C5.7875 32.6667 7.55167 32.6667 11.08 32.6667Z" stroke="url(#paint0_linear_1098_310)" stroke-width="2" stroke-linecap="round" stroke-linejoin="round"/>
<defs>
<linearGradient id="paint0_linear_1098_310" x1="1" y1="20" x2="43" y2="20" gradientUnits="userSpaceOnUse">
<stop stop-color="#80D5FF"/>
<stop offset="0.894231" stop-color="#C6E0AB"/>
<stop offset="1" stop-color="#FFE867"/>
</linearGradient>
</defs>
</svg>
