<svg width="55" height="55" viewBox="0 0 55 55" fill="none" xmlns="http://www.w3.org/2000/svg">
<circle cx="27.5" cy="27.5" r="27.25" stroke="url(#paint0_linear_arrow)" stroke-width="0.5"/>
<path d="M28.5 16C28.5 15.1716 27.8284 14.5 27 14.5C26.1716 14.5 25.5 15.1716 25.5 16H27H28.5ZM25.9393 41.0607C26.5251 41.6464 27.4749 41.6464 28.0607 41.0607L37.6066 31.5147C38.1924 30.9289 38.1924 29.9792 37.6066 29.3934C37.0208 28.8076 36.0711 28.8076 35.4853 29.3934L27 37.8787L18.5147 29.3934C17.9289 28.8076 16.9792 28.8076 16.3934 29.3934C15.8076 29.9792 15.8076 30.9289 16.3934 31.5147L25.9393 41.0607ZM27 16H25.5V40H27H28.5V16H27Z" fill="url(#paint1_linear_arrow)"/>
<defs>
<linearGradient id="paint0_linear_arrow" x1="0" y1="27.5" x2="55" y2="27.5" gradientUnits="userSpaceOnUse">
<stop stop-color="#03ACFF"/>
<stop offset="1" stop-color="#F4D731"/>
</linearGradient>
<linearGradient id="paint1_linear_arrow" x1="27" y1="13.0309" x2="27" y2="46.6804" gradientUnits="userSpaceOnUse">
<stop stop-color="#03ACFF"/>
<stop offset="0.5" stop-color="#7CC198"/>
<stop offset="1" stop-color="#F4D731"/>
</linearGradient>
</defs>
</svg>
