<svg width="48" height="53" viewBox="0 0 48 53" fill="none" xmlns="http://www.w3.org/2000/svg">
<path d="M26.5556 23.95H11.2222M16.3333 34.15H11.2222M31.6667 13.75H11.2222M41.8889 22.675V13.24C41.8889 8.9556 41.8889 6.8134 41.0533 5.17697C40.3182 3.73753 39.1454 2.56723 37.7028 1.8338C36.0628 1 33.916 1 29.6222 1H13.2667C8.97293 1 6.82606 1 5.18607 1.8338C3.7435 2.56723 2.57065 3.73753 1.83562 5.17697C1 6.8134 1 8.9556 1 13.24V39.76C1 44.0444 1 46.1866 1.83562 47.823C2.57065 49.2625 3.7435 50.4328 5.18607 51.1662C6.82606 52 8.97293 52 13.2667 52H20.1667M47 52L43.1667 48.175M45.7222 41.8C45.7222 46.7291 41.7177 50.725 36.7778 50.725C31.8379 50.725 27.8333 46.7291 27.8333 41.8C27.8333 36.8709 31.8379 32.875 36.7778 32.875C41.7177 32.875 45.7222 36.8709 45.7222 41.8Z" stroke="url(#paint0_linear_1098_308)" stroke-width="2" stroke-linecap="round" stroke-linejoin="round"/>
<defs>
<linearGradient id="paint0_linear_1098_308" x1="1" y1="26.5" x2="47" y2="26.5" gradientUnits="userSpaceOnUse">
<stop stop-color="#80D5FF"/>
<stop offset="0.894231" stop-color="#C6E0AB"/>
<stop offset="1" stop-color="#FFE867"/>
</linearGradient>
</defs>
</svg>
