<?xml version="1.0" encoding="UTF-8"?>
<svg id="Layer_1" xmlns="http://www.w3.org/2000/svg" xmlns:xlink="http://www.w3.org/1999/xlink" version="1.1" viewBox="0 0 1459.957 1071.709">
  <!-- Generator: Adobe Illustrator 30.2.1, SVG Export Plug-In . SVG Version: 2.1.1 Build 1)  -->
  <defs>
    <style>
      .st0 {
        fill: url(#linear-gradient2);
      }

      .st1 {
        fill: url(#linear-gradient1);
      }

      .st2 {
        fill: url(#radial-gradient);
      }

      .st3 {
        fill: url(#linear-gradient);
      }

      .st4 {
        fill: #fff;
      }
    </style>
    <linearGradient id="linear-gradient" x1="1024.638" y1="279.1" x2="1241.429" y2="-96.392" gradientTransform="translate(-574.828 255.409) rotate(-4.856)" gradientUnits="userSpaceOnUse">
      <stop offset="0" stop-color="#009189"/>
      <stop offset="1" stop-color="#147bc1"/>
    </linearGradient>
    <linearGradient id="linear-gradient1" x1="9710.248" y1="2687.798" x2="9928.92" y2="2309.047" gradientTransform="translate(10867.702 2401.045) rotate(-153.904) scale(1 -1)" gradientUnits="userSpaceOnUse">
      <stop offset="0" stop-color="#deeaa9"/>
      <stop offset="1" stop-color="#90c8e6"/>
    </linearGradient>
    <linearGradient id="linear-gradient2" x1="1766.111" y1="-503.431" x2="1892.678" y2="-503.431" gradientTransform="translate(-891.19 896.539) rotate(-11.485)" xlink:href="#linear-gradient"/>
    <radialGradient id="radial-gradient" cx="-160.921" cy="1023.619" fx="-160.921" fy="911.415" r="112.25" gradientTransform="translate(137.517 2244.854) rotate(-169.698) scale(1.668 1.746) skewX(.542)" gradientUnits="userSpaceOnUse">
      <stop offset=".159" stop-color="#ebe1a3"/>
      <stop offset=".244" stop-color="#ebdf96"/>
      <stop offset=".4" stop-color="#eedc75"/>
      <stop offset=".607" stop-color="#f2d741"/>
      <stop offset=".658" stop-color="#f4d633"/>
      <stop offset=".995" stop-color="#f4d633"/>
    </radialGradient>
  </defs>
  <g>
    <path class="st3" d="M762.902,132.929c-47.372,156.33-210.267,292.64-375.363,273.978-24.109-4.585-25.485-26.17-19.691-46.564,37.177-155.725,188.514-271.723,345.164-266.827,27.494.072,56.525,3.451,49.89,39.413Z"/>
    <path class="st1" d="M804.39,140.916c-11.012,163.33,92.716,350.969,253.182,394.983,24.089,4.694,32.988-14.913,34.785-36.076,20.301-158.974-79.822-323.382-227.558-377.085-25.651-10.16-53.903-17.807-60.409,18.179Z"/>
    <path class="st0" d="M868.22,55.715c2.146-52.298-105.48-78.823-130.509-29.823-4.488,8.79-.089,19.513,8.697,21.846,32.482,8.623,70.572,14.065,103.384,22.983,8.956,2.429,18.013-4.933,18.428-15.007Z"/>
    <path class="st2" d="M841.071,443.862c-58.306,336.246-285.244,285.108-219.777-42.978,55.542-35.042,103.005-81.643,138.244-135.754,13.831,63.848,41.806,125.236,81.533,178.733Z"/>
  </g>
  <g>
    <path class="st4" d="M0,882.708c0-2.736,2.188-5.197,5.197-5.197h111.322c3.008,0,5.197,2.461,5.197,5.197v22.428c0,2.736-2.189,5.197-5.197,5.197H35.558v51.422h67.558c2.736,0,5.197,2.461,5.197,5.197v22.429c0,2.735-2.461,5.197-5.197,5.197H35.558v69.199c0,2.736-2.462,5.197-5.197,5.197H5.197c-3.009,0-5.197-2.461-5.197-5.197v-181.068Z"/>
    <path class="st4" d="M181.607,932.761l-24.07,5.197c-2.461.547-5.197-1.093-5.47-3.556l-1.641-13.403c-.273-2.188.273-3.829,1.368-4.922l39.386-33.096h19.146c2.736,0,4.924,2.461,4.924,5.197v175.598c0,2.736-2.188,5.197-4.924,5.197h-23.522c-3.009,0-5.197-2.461-5.197-5.197v-131.015Z"/>
    <path class="st4" d="M279.245,882.708c0-2.736,2.188-5.197,5.197-5.197h78.226c32.822,0,59.627,26.258,59.627,58.806,0,25.164-16.685,45.677-40.48,55.251l37.471,69.473c1.915,3.557,0,7.932-4.649,7.932h-28.72c-2.461,0-3.829-1.368-4.376-2.461l-36.378-72.483h-30.36v69.747c0,2.736-2.462,5.197-5.197,5.197h-25.164c-3.009,0-5.197-2.461-5.197-5.197v-181.068ZM359.659,964.763c14.496,0,27.079-12.582,27.079-27.898,0-14.497-12.583-26.532-27.079-26.532h-44.583v54.43h44.583Z"/>
    <path class="st4" d="M460.302,1040.528l13.949-13.403c2.461-2.188,4.924-2.188,7.111,0,.82,1.094,16.958,14.771,33.642,14.771,14.769,0,28.993-10.668,28.993-25.711,0-14.223-13.129-27.079-37.746-27.079h-15.317c-3.008,0-5.197-2.188-5.197-5.47v-17.232c0-3.556,1.915-5.47,5.197-5.47h15.317c22.429,0,33.916-11.214,33.916-25.163,0-15.044-12.582-25.163-26.531-25.163-14.223,0-22.975,7.658-27.626,13.128-1.915,2.188-4.922,2.461-7.385.273l-13.402-12.582c-2.189-1.915-1.915-5.197,0-7.111,0,0,20.786-24.07,51.421-24.07,31.728,0,58.259,19.42,58.259,50.054,0,21.061-15.864,36.925-28.172,42.668v.821c12.855,5.47,33.096,20.24,33.096,44.583,0,30.908-25.163,53.336-62.909,53.336-34.189,0-50.874-17.232-56.891-24.343-1.641-1.915-1.368-4.924.273-6.838Z"/>
    <path class="st4" d="M631.513,882.708c0-2.736,2.188-5.197,5.197-5.197h111.322c3.009,0,5.196,2.461,5.196,5.197v22.428c0,2.736-2.187,5.197-5.196,5.197h-80.961v51.422h67.558c2.736,0,5.198,2.461,5.198,5.197v22.429c0,2.735-2.462,5.197-5.198,5.197h-67.558v69.199c0,2.736-2.462,5.197-5.197,5.197h-25.164c-3.009,0-5.197-2.461-5.197-5.197v-181.068Z"/>
    <path class="st4" d="M799.443,882.708c0-2.736,2.189-5.197,5.198-5.197h25.163c2.736,0,5.196,2.461,5.196,5.197v153.443h69.747c3.009,0,5.198,2.462,5.198,5.197v22.429c0,2.736-2.189,5.197-5.198,5.197h-100.106c-3.009,0-5.198-2.461-5.198-5.197v-181.068Z"/>
    <path class="st4" d="M974.488,976.798l-62.362-91.355c-2.189-3.556,0-7.931,4.376-7.931h27.899c2.189,0,3.556,1.367,4.376,2.461l43.764,62.909,43.762-62.909c.82-1.094,2.189-2.461,4.376-2.461h28.174c4.376,0,6.563,4.376,4.376,7.931l-63.182,91.081v87.252c0,2.736-2.462,5.197-5.198,5.197h-25.163c-3.009,0-5.196-2.461-5.196-5.197v-86.979Z"/>
    <path class="st4" d="M1109.05,1026.578c12.309,0,22.703,10.394,22.703,22.702s-10.394,22.429-22.703,22.429-22.428-10.12-22.428-22.429,10.12-22.702,22.428-22.702Z"/>
    <path class="st4" d="M1177.697,882.708c0-2.736,2.462-5.197,5.198-5.197h25.437c2.736,0,5.196,2.461,5.196,5.197v181.068c0,2.736-2.46,5.197-5.196,5.197h-25.437c-2.736,0-5.198-2.461-5.198-5.197v-181.068Z"/>
    <path class="st4" d="M1361.491,874.776c54.704,0,98.466,44.036,98.466,98.739s-43.762,98.194-98.466,98.194-98.193-43.489-98.193-98.194,43.491-98.739,98.193-98.739ZM1361.491,1036.151c34.464,0,62.909-28.172,62.909-62.636s-28.446-63.182-62.909-63.182-62.636,28.72-62.636,63.182,28.172,62.636,62.636,62.636Z"/>
  </g>
</svg>