<?xml version="1.0" encoding="utf-8"?>
<!-- Generator: Adobe Illustrator 30.1.0, SVG Export Plug-In . SVG Version: 9.03 Build 0)  -->
<svg version="1.1" id="Layer_1" xmlns="http://www.w3.org/2000/svg" xmlns:xlink="http://www.w3.org/1999/xlink" x="0px" y="0px"
	 viewBox="0 0 2000.57 884.05" style="enable-background:new 0 0 2000.57 884.05;" xml:space="preserve">
<style type="text/css">
	.st0{fill:#FFFFFF;}
	.st1{fill:url(#G_LEFT_00000096771687212801100090000017482309006490583468_);}
	.st2{fill:url(#G_RIGHT_00000004533105268747145340000002065031790538032037_);}
	.st3{fill:#F3D630;}
</style>
<g>
	<path class="st0" d="M0,745.85c0-2,1.6-3.8,3.8-3.8h80c2.2,0,3.8,1.8,3.8,3.8v11.2c0,2-1.6,3.8-3.8,3.8H20.6v46.2H74
		c2,0,3.8,1.8,3.8,3.8v11c0,2-1.8,3.8-3.8,3.8H20.6v52.6c0,2-1.8,3.8-3.8,3.8h-13c-2.2,0-3.8-1.8-3.8-3.8V745.85z"/>
	<path class="st0" d="M129.8,776.65l-16,7.6c-1.8,0.8-3.8,0.4-4.4-1.4l-2.4-7c-0.6-1.6-0.2-3.2,0.6-4l28.4-25.8h9.8
		c2,0,3.6,1.8,3.6,3.8v128.4c0,2-1.6,3.8-3.6,3.8h-12.2c-2.2,0-3.8-1.8-3.8-3.8V776.65z"/>
	<path class="st0" d="M195.4,745.85c0-2,1.6-3.8,3.8-3.8h54.4c24,0,43.6,19,43.6,42.8c0,18.4-12.2,33.6-29.6,40.6l27.4,50.8
		c1.4,2.6,0,5.8-3.4,5.8H276c-1.6,0-2.8-1-3.2-1.8l-26.6-53H216v51c0,2-1.8,3.8-3.8,3.8h-13c-2.2,0-3.8-1.8-3.8-3.8V745.85z
		 M252,810.05c13,0,24.4-11,24.4-24.8c0-13-11.4-23.8-24.4-23.8h-35.6v48.6H252z"/>
	<path class="st0" d="M324.4,861.45l7.8-7.2c2-1.6,3.8-1.4,5.4,0.4c1.2,1.6,12.4,12.4,27.2,12.4c13,0,25-8.2,25-21.6
		c0-12-10.2-23.4-31.6-23.4h-11.2c-2.2,0-3.8-1.4-3.8-4.2v-8.6c0-3,1.2-4.2,4-4.2h11.2c18.8,0,28.2-9.6,28.2-21.4
		c0-13.4-11-21.8-22.8-21.8c-12,0-19.2,6.8-23.2,11.2c-1.2,1.6-3.4,2-5.2,0.4l-7.4-6.6c-1.6-1.4-1.4-3.8,0-5.2
		c0,0,15.2-17.6,37-17.6c23.2,0,41.8,14.2,41.8,36.6c0,15.4-11.6,27.2-20.6,31.4v0.6c9.4,4,24.2,16,24.2,33.2
		c0,21.8-17.6,38.2-45.2,38.2c-24.8,0-36.6-12.6-41-17.8C322.99,864.85,322.99,862.65,324.4,861.45z"/>
	<path class="st0" d="M447.79,745.85c0-2,1.6-3.8,3.8-3.8h80c2.2,0,3.8,1.8,3.8,3.8v11.2c0,2-1.6,3.8-3.8,3.8h-63.2v46.2h53.4
		c2,0,3.8,1.8,3.8,3.8v11c0,2-1.8,3.8-3.8,3.8h-53.4v52.6c0,2-1.8,3.8-3.8,3.8h-13c-2.2,0-3.8-1.8-3.8-3.8V745.85z"/>
	<path class="st0" d="M567.79,745.85c0-2,1.6-3.8,3.8-3.8h13.2c2,0,3.8,1.8,3.8,3.8v117.6h54.2c2.2,0,3.8,1.8,3.8,3.8v11
		c0,2-1.6,3.8-3.8,3.8h-71.2c-2.2,0-3.8-1.8-3.8-3.8V745.85z"/>
	<path class="st0" d="M691.59,814.65l-46.8-66.8c-1.6-2.6,0-5.8,3.2-5.8h14.8c1.6,0,2.6,1,3.2,1.8l36.2,51l36.2-51
		c0.6-0.8,1.8-1.8,3.2-1.8h15c3.2,0,4.8,3.2,3.2,5.8l-47.4,66.6v63.8c0,2-1.8,3.8-3.8,3.8h-13.2c-2.2,0-3.8-1.8-3.8-3.8V814.65z"/>
	<path class="st0" d="M836.59,745.85c0-2,1.8-3.8,3.8-3.8h13.2c2,0,3.8,1.8,3.8,3.8v132.4c0,2-1.8,3.8-3.8,3.8h-13.2
		c-2,0-3.8-1.8-3.8-3.8V745.85z"/>
	<path class="st0" d="M902.98,743.65c0-2,1.8-3.6,3.8-3.6h5l86.8,100.4h0.2v-94.6c0-2,1.6-3.8,3.8-3.8h12.8c2,0,3.8,1.8,3.8,3.8
		v134.6c0,2-1.8,3.6-3.8,3.6h-5.2l-86.8-103.2h-0.2v97.4c0,2-1.6,3.8-3.8,3.8h-12.6c-2,0-3.8-1.8-3.8-3.8V743.65z"/>
	<path class="st0" d="M1064.78,745.85c0-2,1.6-3.8,3.6-3.8h46c38.6,0,70.2,31.4,70.2,69.8c0,38.8-31.6,70.2-70.2,70.2h-46
		c-2,0-3.6-1.8-3.6-3.8V745.85z M1111.58,863.05c29.4,0,50.8-21.6,50.8-51.2c0-29.4-21.4-50.8-50.8-50.8h-26.4v102H1111.58z"/>
	<path class="st0" d="M1218.38,745.85c0-2,1.8-3.8,3.8-3.8h13.4c2.2,0,3.8,1.8,3.8,3.8v82.6c0,20,12.8,35.6,33.2,35.6
		c20.6,0,33.6-15.4,33.6-35.2v-83c0-2,1.6-3.8,3.8-3.8h13.4c2,0,3.8,1.8,3.8,3.8v84c0,30.4-23,54.2-54.6,54.2
		c-31.4,0-54.2-23.8-54.2-54.2V745.85z"/>
	<path class="st0" d="M1361.98,861.85c1.8-2.6,3.4-5.6,5.2-8.2c1.8-2.6,4.6-3.4,6.8-1.6c1.2,1,16.6,13.8,32,13.8
		c13.8,0,22.6-8.4,22.6-18.6c0-12-10.4-19.6-30.2-27.8c-20.4-8.6-36.4-19.2-36.4-42.4c0-15.6,12-37,43.8-37c20,0,35,10.4,37,11.8
		c1.6,1,3.2,3.8,1.2,6.8c-1.6,2.4-3.4,5.2-5,7.6c-1.6,2.6-4.2,3.8-7,2c-1.4-0.8-15.4-10-27-10c-16.8,0-22.6,10.6-22.6,18
		c0,11.4,8.8,18.4,25.4,25.2c23.2,9.4,43,20.4,43,44.8c0,20.8-18.6,37.8-44.6,37.8c-24.4,0-39.8-12.8-43-15.8
		C1361.38,866.65,1359.98,865.25,1361.98,861.85z"/>
	<path class="st0" d="M1504.38,760.85h-32.6c-2.2,0-3.8-1.8-3.8-3.8v-11.2c0-2,1.6-3.8,3.8-3.8h86c2.2,0,3.8,1.8,3.8,3.8v11.2
		c0,2-1.6,3.8-3.8,3.8h-32.6v117.4c0,2-1.8,3.8-3.8,3.8h-13.2c-2,0-3.8-1.8-3.8-3.8V760.85z"/>
	<path class="st0" d="M1589.98,745.85c0-2,1.6-3.8,3.8-3.8h54.4c24,0,43.6,19,43.6,42.8c0,18.4-12.2,33.6-29.6,40.6l27.4,50.8
		c1.4,2.6,0,5.8-3.4,5.8h-15.6c-1.6,0-2.8-1-3.2-1.8l-26.6-53h-30.2v51c0,2-1.8,3.8-3.8,3.8h-13c-2.2,0-3.8-1.8-3.8-3.8V745.85z
		 M1646.57,810.05c13,0,24.4-11,24.4-24.8c0-13-11.4-23.8-24.4-23.8h-35.6v48.6H1646.57z"/>
	<path class="st0" d="M1729.77,745.85c0-2,1.8-3.8,3.8-3.8h13.2c2,0,3.8,1.8,3.8,3.8v132.4c0,2-1.8,3.8-3.8,3.8h-13.2
		c-2,0-3.8-1.8-3.8-3.8V745.85z"/>
	<path class="st0" d="M1796.17,745.85c0-2,1.6-3.8,3.8-3.8h80c2.2,0,3.8,1.8,3.8,3.8v11.2c0,2-1.6,3.8-3.8,3.8h-63.2v40.8h53.4
		c2,0,3.8,1.8,3.8,3.8v11.2c0,2.2-1.8,3.8-3.8,3.8h-53.4v43h63.2c2.2,0,3.8,1.8,3.8,3.8v11c0,2-1.6,3.8-3.8,3.8h-80
		c-2.2,0-3.8-1.8-3.8-3.8V745.85z"/>
	<path class="st0" d="M1911.77,861.85c1.8-2.6,3.4-5.6,5.2-8.2c1.8-2.6,4.6-3.4,6.8-1.6c1.2,1,16.6,13.8,32,13.8
		c13.8,0,22.6-8.4,22.6-18.6c0-12-10.4-19.6-30.2-27.8c-20.4-8.6-36.4-19.2-36.4-42.4c0-15.6,12-37,43.8-37c20,0,35,10.4,37,11.8
		c1.6,1,3.2,3.8,1.2,6.8c-1.6,2.4-3.4,5.2-5,7.6c-1.6,2.6-4.2,3.8-7,2c-1.4-0.8-15.4-10-27-10c-16.8,0-22.6,10.6-22.6,18
		c0,11.4,8.8,18.4,25.4,25.2c23.2,9.4,43,20.4,43,44.8c0,20.8-18.6,37.8-44.6,37.8c-24.4,0-39.8-12.8-43-15.8
		C1911.17,866.65,1909.77,865.25,1911.77,861.85z"/>
</g>
<g>
	
		<linearGradient id="G_LEFT_00000003079087221295837090000017035209352777587606_" gradientUnits="userSpaceOnUse" x1="614.0943" y1="430.9708" x2="1110.8511" y2="430.9708" gradientTransform="matrix(0.9988 -0.0491 0.0491 0.9988 -13.6708 49.0347)">
		<stop  offset="0" style="stop-color:#5DB7E7"/>
		<stop  offset="1" style="stop-color:#F3D630"/>
	</linearGradient>
	<path id="G_LEFT" style="fill:url(#G_LEFT_00000003079087221295837090000017035209352777587606_);" d="M1108.01,242.25
		c0.17,1.99-0.09,4-0.78,5.84c-2.28,6.28-8.71,9.95-15.29,8.72c-18.21-3.45-37.55-5.22-59.13-5.43c-14.35-0.09-29.53,0.43-45.1,1.53
		c-46.03,2.71-102.74,16.79-159.72,39.64c-28.99,11.77-54.53,26-75.89,42.27c-37.5,28.89-84.58,76.48-95.8,139.02
		c-0.01,0.07-0.03,0.14-0.04,0.22c-4.48,49.46,17.04,81.9,29.89,94.53c49.22,47.44,81.74,49.9,109.83,50.84l2.18,0.04
		c49.91,0.93,111.18-12.29,127.91-19.79c3.32-1.48,7.02-1.59,10.41-0.3c3.44,1.34,6.12,3.88,7.59,7.18
		c2.48,5.57,0.94,12.12-3.74,16.01c-14,12.4-36.47,20.74-52.88,25.55c-20.21,5.94-43.32,10.08-63.41,11.38
		c-1.31,0.09-2.63,0.16-3.94,0.23c-0.8,0.04-1.61,0.08-2.43,0.1c-48.44,1.95-94.04-10.52-128.42-35.09
		c-39.74-28.39-62.49-70.46-65.78-121.66l-0.01-0.13c-0.05-1.12-0.09-2.17-0.11-3.18c-0.04-1.69-0.11-3.37-0.24-5.05
		c-0.06-0.76-0.11-1.49-0.16-2.2l-0.01-0.13c-1.82-42.07,10.52-86.22,35.67-127.65c30.03-49.21,77.2-90.09,136.42-118.23
		c34.2-16.24,74.36-26.72,119.41-31.15c17.53-1.73,36.46-2.58,56.3-2.55c18.78-0.14,41.14,0.07,64.09,2.66
		c24.03,2.61,45.02,7.23,64.16,14.11C1104.4,231.49,1107.97,236.55,1108.01,242.25z"/>
	
		<linearGradient id="G_RIGHT_00000078022961412747101920000009188349973048583085_" gradientUnits="userSpaceOnUse" x1="930.9576" y1="228.9613" x2="1190.8872" y2="228.9613" gradientTransform="matrix(0.9988 -0.0491 0.0491 0.9988 -13.6708 49.0347)">
		<stop  offset="0" style="stop-color:#F3D630"/>
		<stop  offset="1" style="stop-color:#5DB7E7"/>
	</linearGradient>
	<path id="G_RIGHT" style="fill:url(#G_RIGHT_00000078022961412747101920000009188349973048583085_);" d="M1161.19,395.16
		c-6.95,16.41-14.85,32.37-23.5,47.47c-3.68,6.45-12.7,9.12-19.91,9.47c-4.26,0.21-8.41-0.33-11.99-1.54
		c-6.25-2.12-10.52-8.07-10.87-15.15c-0.14-2.87,0.46-5.76,1.71-8.36c8.92-18.3,17.09-38.13,24.31-58.97
		c15.78-47.25,21.82-95.69,17.47-140.01c-2.21-21.19-6.52-42.37-12.77-62.91c-18.66-62.86-56.8-111.44-102.03-129.99l-0.24-0.1
		c-0.25-0.1-16.99-7.66-35.98-10.58c-4.78-0.75-22.22-2.59-46.1,4.63c-0.53,0.16-2.08,0.83-3.11,1.28l-0.61,0.26
		c-5.68,2.5-9.8,4.32-14.48,2.1c-2.56-1.22-4.48-3.49-5.24-6.21l-0.68-2.49l0.65-2.49c1.45-5.37,5.4-7.2,6.89-7.89
		c0.11-0.05,0.18-0.07,0.24-0.11l0.09-0.05c5.86-3.16,12.61-6.64,18.6-7.99c30.34-8.76,62.7-7.09,93.61,4.84
		c73.69,27.33,119.05,99.76,136.89,158.42c5.85,19.08,10.21,39.99,12.95,62.16C1192.95,286.35,1183.99,343.1,1161.19,395.16z"/>
	<path id="YELLOW" class="st3" d="M1064.87,491.12c-0.92-2.07-0.44-4.76,1.22-6.78c10.51-12.87,23.27-19.43,29.78-14.8
		c6.46,4.59,4.54,18.64-4.02,32.71c-1.32,2.17-3.6,3.54-5.8,3.43c-4.65-0.25-9.12-1.7-13-4.46
		C1069.39,498.62,1066.65,495.13,1064.87,491.12z M1377.21,454.73c-0.33-16.42-2.89-32.72-7.6-48.46
		c-3.77-12.64-16.74-19.99-29.56-16.74l-0.15,0.04c-6.43,1.62-11.8,5.67-15.11,11.42c-3.32,5.74-4.17,12.7-2.32,19.13l0.04,0.11
		c0.15,0.53,0.3,1.06,0.46,1.68c3.95,14.08,6.68,29.23,8.35,46.34c0.38,3.76,0.58,7.57,0.61,11.34
		c0.36,32.03-11.19,62.37-31.68,83.26c-19.17,19.36-45.05,33.04-74.87,39.58c-21.28,4.76-45.14,5.5-73,2.26
		c-52.93-5.68-104.87-25.96-150.19-58.63c-44.94-32.61-83.64-79.82-118.29-144.28c-0.54-1.08-1.09-2.17-1.65-3.26l-0.61-1.21
		c-2.97-5.83-5.61-11.06-7.77-16.05c-8.07-17.77-15.28-37.17-21.44-57.65c-2.2-7.21-9.15-11.67-16.46-10.61
		c-4.03,0.52-7.62,2.57-10.07,5.76c-2.5,3.22-3.58,7.25-3.04,11.39c0.12,0.87,0.22,3.99,0.27,5.68l0,0.25
		c0.08,2.4,0.13,3.63,0.25,4.59c3.01,21.82,8.24,43.7,15.53,64.99c7.15,21.91,17.69,43.24,27.05,61.22
		c14.88,28.36,32.23,54.21,51.58,76.83c11.31,13.15,23.49,25.37,36.21,36.34l0.4,0.32c0.97,0.79,2.42,1.98,3.98,3.28l0.87,0.72
		c1.83,1.53,3.58,2.97,4.84,3.95c1,0.79,2.96,2.26,5.98,4.51l1.05,0.78c0.6,0.47,1.19,0.9,1.7,1.29c0.52,0.39,0.97,0.72,1.39,1.04
		l0.34,0.26c39.21,27.47,83.97,46.81,129.45,55.93c24.31,4.87,48.74,6.74,72.6,5.57c23.93-1.18,47.07-5.41,68.82-12.58
		c57.65-19.3,101.15-58.12,119.35-106.52C1375.17,511.15,1379.44,482.92,1377.21,454.73z M864.99,134.44
		c-9.16-4.26-19-5.7-28.71-4.66c-4.6,0.49-8.72,4.02-10.53,8.82c-11.75,31.16-9.82,60.09,5.45,67.2
		c15.38,7.15,38.96-10.28,55.25-39.69c2.57-4.63,2.43-10.2-0.34-14.06C880.74,144.57,873.64,138.47,864.99,134.44z M1268.09,297.97
		c0.73-3.39-0.84-7.26-3.96-9.78c-19.8-15.98-40.97-21.79-49.27-12.82c-8.24,8.91-0.94,29.35,16.3,47.73
		c2.65,2.83,6.5,4.18,9.76,3.31c6.89-1.84,13.13-5.41,18.08-10.76C1263.67,310.62,1266.68,304.54,1268.09,297.97z"/>
	<path id="WHITE" class="st0" d="M1053.31,530.65c0.69-0.72,1.41-1.4,2.15-2.04c1.31-1.15,2.7-2.21,4.15-3.15
		c0.64-0.42,1.3-0.82,1.97-1.2c4.39-2.47,9.3-4.02,14.46-4.51c2.12-0.2,4.23-0.22,6.32-0.06c1.23,0.09,2.45,0.25,3.66,0.47
		c5.17,0.93,10.09,2.97,14.45,6.03c0.67,0.47,0.81,1.41,0.32,2.07c-0.42,0.57-0.86,1.12-1.31,1.67
		c-6.21,7.46-14.96,12.07-24.62,12.99c-4.36,0.41-8.68,0.05-12.8-1.03c-0.78-0.2-1.56-0.44-2.32-0.69c-3.29-1.1-6.42-2.68-9.31-4.71
		c-0.67-0.47-0.81-1.41-0.32-2.07c0.42-0.57,0.86-1.13,1.31-1.67C1052.03,532.01,1052.66,531.31,1053.31,530.65z M1047.27,524.94
		c0.58-0.81,1.12-1.64,1.62-2.49c0.9-1.5,1.68-3.05,2.35-4.65c0.3-0.71,0.57-1.43,0.82-2.16c1.64-4.77,2.28-9.87,1.83-15.04
		c-0.19-2.12-0.55-4.2-1.08-6.22c-0.31-1.19-0.69-2.37-1.12-3.51c-1.85-4.92-4.74-9.38-8.54-13.12c-0.59-0.58-1.53-0.54-2.09,0.06
		c-0.48,0.52-0.95,1.05-1.4,1.59c-6.21,7.46-9.17,16.89-8.33,26.56c0.38,4.36,1.52,8.55,3.32,12.4c0.34,0.73,0.71,1.45,1.1,2.15
		c1.68,3.03,3.8,5.83,6.32,8.3c0.59,0.58,1.53,0.54,2.09-0.06c0.48-0.52,0.95-1.05,1.41-1.59
		C1046.15,526.45,1046.73,525.71,1047.27,524.94z M1031.87,533.06c-0.5-0.72-1.6-0.55-1.89,0.27c-1.73,4.98-0.32,10.74,3.96,14.3
		c4.33,3.6,10.33,3.92,14.93,1.23c0.76-0.44,0.71-1.56-0.09-1.9c-3.33-1.44-6.48-3.35-9.36-5.71l-0.01-0.01
		c-0.09-0.07-0.43-0.36-0.52-0.43l-0.01-0.01C1036.19,538.51,1033.84,535.9,1031.87,533.06z M887.03,72.22
		c0.6-1.28,1.16-2.59,1.68-3.9c0.61-1.53-0.14-3.26-1.68-3.83c-6.62-2.44-13.48-3.89-20.4-4.34c-1.6-0.11-3.22-0.16-4.83-0.15
		c-8.51,0.02-17.04,1.53-25.25,4.56c-18.19,6.72-32.72,20.11-40.91,37.7c-0.6,1.28-1.16,2.58-1.68,3.89
		c-0.61,1.53,0.14,3.27,1.68,3.83c10.01,3.69,20.55,5.11,31.01,4.25c2.44-0.19,4.88-0.51,7.3-0.97c4.1-0.75,8.17-1.87,12.17-3.35
		c9.73-3.6,18.41-9.1,25.63-16.13c1.1-1.07,2.17-2.18,3.2-3.32c2.33-2.56,4.47-5.3,6.41-8.21c1.11-1.63,2.14-3.31,3.11-5.05
		C885.39,75.6,886.24,73.93,887.03,72.22z M896.29,82.46c-0.7,1.86-1.32,3.74-1.86,5.63c-0.97,3.35-1.69,6.76-2.15,10.19
		c-0.21,1.52-0.38,3.05-0.48,4.58c-0.73,10.05,0.65,20.23,4.17,29.99c1.45,4.01,3.21,7.84,5.28,11.46c1.22,2.15,2.54,4.22,3.96,6.21
		c6.08,8.55,13.96,15.7,23.22,20.98c1.43,0.81,3.24,0.26,4.01-1.18c0.67-1.24,1.3-2.51,1.9-3.79c8.19-17.59,9.07-37.33,2.5-55.57
		c-2.97-8.23-7.31-15.74-12.77-22.25c-1.04-1.24-2.12-2.44-3.23-3.6c-4.8-5-10.33-9.32-16.46-12.81c-1.43-0.81-3.24-0.26-4.01,1.19
		c-0.67,1.24-1.3,2.51-1.9,3.8C897.67,78.99,896.94,80.72,896.29,82.46z M917.05,63.35c0.89,0.76,2.26,0.17,2.34-1
		c0.53-7.02-3.26-13.98-10.02-17.12c-6.83-3.18-14.68-1.53-19.71,3.52c-0.83,0.83-0.39,2.25,0.77,2.43
		c4.79,0.72,9.51,2.11,14.04,4.17l0.02,0.01c0.14,0.06,0.68,0.32,0.82,0.38l0.01,0.01C909.62,57.78,913.54,60.34,917.05,63.35z
		 M1294.51,355.03c-1.19-0.95-2.42-1.84-3.67-2.67c-2.22-1.49-4.53-2.81-6.92-3.95c-1.06-0.51-2.14-0.99-3.23-1.42
		c-7.16-2.88-14.91-4.26-22.85-3.98c-3.26,0.12-6.47,0.51-9.6,1.16c-1.85,0.38-3.67,0.87-5.46,1.44
		c-7.66,2.43-14.72,6.5-20.74,12.02c-0.93,0.85-0.95,2.3-0.08,3.2c0.75,0.78,1.53,1.54,2.32,2.27
		c10.91,10.09,25.1,15.36,39.95,14.83c6.7-0.24,13.19-1.64,19.22-4.1c1.15-0.46,2.28-0.97,3.38-1.51c4.77-2.33,9.21-5.35,13.2-9
		c0.93-0.85,0.95-2.3,0.07-3.2c-0.75-0.78-1.53-1.54-2.33-2.27C1296.72,356.85,1295.63,355.91,1294.51,355.03z M1305.32,350.08
		c0.8,0.74,1.61,1.45,2.45,2.14c0.97,0.8,2.41,0.66,3.19-0.33c3.33-4.25,5.99-8.92,7.94-13.86c0.45-1.14,0.87-2.31,1.24-3.49
		c1.98-6.21,2.87-12.78,2.58-19.48c-0.64-14.84-7.01-28.57-17.92-38.65c-0.79-0.73-1.61-1.45-2.45-2.14
		c-0.97-0.8-2.41-0.66-3.19,0.33c-5.03,6.43-8.54,13.78-10.36,21.61c-0.43,1.82-0.77,3.68-1,5.55c-0.41,3.17-0.55,6.4-0.41,9.66
		c0.35,7.94,2.32,15.55,5.76,22.46c0.52,1.06,1.08,2.09,1.67,3.11c1.32,2.3,2.82,4.5,4.48,6.59c0.93,1.19,1.91,2.34,2.95,3.45
		C1303.24,348.09,1304.26,349.1,1305.32,350.08z M1313.04,364.98L1313.04,364.98c-0.09,0.1-0.4,0.43-0.48,0.52l-0.01,0.01
		c-2.64,2.8-5.61,5.19-8.83,7.11c-0.78,0.46-0.68,1.61,0.16,1.96c5.08,2.14,11.19,1.01,15.14-3.26c3.91-4.23,4.59-10.32,2.14-15.19
		c-0.41-0.81-1.56-0.84-1.97-0.03C1317.56,359.28,1315.5,362.27,1313.04,364.98z"/>
</g>
</svg>