<?xml version="1.0" encoding="utf-8"?>
<!-- Generator: Adobe Illustrator 30.2.1, SVG Export Plug-In . SVG Version: 9.03 Build 0)  -->
<svg version="1.1" id="Layer_1" xmlns="http://www.w3.org/2000/svg" xmlns:xlink="http://www.w3.org/1999/xlink" x="0px" y="0px"
	 viewBox="0 0 2421.87 625.28" style="enable-background:new 0 0 2421.87 625.28;" xml:space="preserve">
<style type="text/css">
	.st0{fill:#FFFFFF;}
	.st1{fill:#F3D631;}
	.st2{fill:#54A0D7;}
	.st3{fill:#ABCEC8;}
</style>
<g>
	<path class="st0" d="M706.18,202.21c0-3.36,2.69-6.38,6.38-6.38h136.57c3.69,0,6.37,3.02,6.37,6.38v27.52
		c0,3.36-2.69,6.38-6.37,6.38h-99.32v63.08h82.88c3.36,0,6.37,3.02,6.37,6.38v27.52c0,3.36-3.02,6.38-6.37,6.38h-82.88v84.9
		c0,3.36-3.02,6.38-6.38,6.38h-30.87c-3.69,0-6.38-3.02-6.38-6.38V202.21z"/>
	<path class="st0" d="M920.6,263.62L891.07,270c-3.02,0.67-6.38-1.34-6.71-4.36l-2.01-16.44c-0.34-2.68,0.34-4.7,1.68-6.04
		l48.32-40.6h23.49c3.36,0,6.04,3.02,6.04,6.38v215.43c0,3.36-2.68,6.38-6.04,6.38h-28.86c-3.69,0-6.37-3.02-6.37-6.38L920.6,263.62
		L920.6,263.62z"/>
	<path class="st0" d="M1032.01,202.21c0-3.36,2.69-6.38,6.38-6.38h95.97c40.27,0,73.15,32.21,73.15,72.14
		c0,30.87-20.47,56.04-49.66,67.78l45.97,85.23c2.35,4.36,0,9.73-5.7,9.73h-35.23c-3.02,0-4.7-1.68-5.37-3.02l-44.63-88.92h-37.25
		v85.57c0,3.36-3.02,6.38-6.38,6.38h-30.87c-3.69,0-6.38-3.02-6.38-6.38V202.21z M1130.66,302.88c17.78,0,33.22-15.44,33.22-34.23
		c0-17.78-15.44-32.55-33.22-32.55h-54.69v66.78H1130.66L1130.66,302.88z"/>
	<path class="st0" d="M1245.75,395.83l17.11-16.44c3.02-2.68,6.04-2.68,8.72,0c1.01,1.34,20.8,18.12,41.27,18.12
		c18.12,0,35.57-13.09,35.57-31.54c0-17.45-16.11-33.22-46.31-33.22h-18.79c-3.69,0-6.37-2.68-6.37-6.71V304.9
		c0-4.36,2.35-6.71,6.37-6.71h18.79c27.51,0,41.61-13.76,41.61-30.87c0-18.46-15.43-30.87-32.55-30.87
		c-17.45,0-28.19,9.4-33.89,16.11c-2.35,2.68-6.04,3.02-9.06,0.34l-16.43-15.46c-2.69-2.35-2.35-6.38,0-8.72
		c0,0,25.5-29.53,63.09-29.53c38.92,0,71.47,23.82,71.47,61.41c0,25.84-19.46,45.3-34.56,52.35v1.01
		c15.77,6.71,40.6,24.83,40.6,54.7c0,37.92-30.87,65.43-77.18,65.43c-41.94,0-62.41-21.14-69.8-29.86
		C1243.4,401.87,1243.74,398.18,1245.75,395.83z"/>
	<path class="st0" d="M1447.42,202.21c0-3.36,2.68-6.38,6.37-6.38h136.57c3.69,0,6.38,3.02,6.38,6.38v27.52
		c0,3.36-2.69,6.38-6.38,6.38h-99.32v63.08h82.88c3.36,0,6.38,3.02,6.38,6.38v27.52c0,3.36-3.02,6.38-6.38,6.38h-82.88v84.9
		c0,3.36-3.02,6.38-6.37,6.38h-30.87c-3.69,0-6.37-3.02-6.37-6.38V202.21H1447.42z"/>
	<path class="st0" d="M1645.06,202.21c0-3.36,2.68-6.38,6.37-6.38h30.87c3.35,0,6.37,3.02,6.37,6.38v188.25h85.57
		c3.69,0,6.37,3.02,6.37,6.38v27.52c0,3.36-2.68,6.38-6.37,6.38h-122.81c-3.69,0-6.37-3.02-6.37-6.38L1645.06,202.21L1645.06,202.21
		z"/>
	<path class="st0" d="M1851.43,317.64l-76.51-112.08c-2.69-4.36,0-9.73,5.37-9.73h34.23c2.69,0,4.36,1.68,5.37,3.02l53.69,77.18
		l53.69-77.18c1.01-1.34,2.69-3.02,5.37-3.02h34.56c5.37,0,8.05,5.37,5.37,9.73l-77.51,111.74v107.04c0,3.36-3.02,6.38-6.38,6.38
		h-30.87c-3.69,0-6.37-3.02-6.37-6.38L1851.43,317.64L1851.43,317.64z"/>
	<path class="st0" d="M2008.14,378.71c15.1,0,27.85,12.75,27.85,27.85s-12.75,27.52-27.85,27.52s-27.52-12.42-27.52-27.52
		C1980.62,391.46,1993.04,378.71,2008.14,378.71z"/>
	<path class="st0" d="M2083.97,202.21c0-3.36,3.02-6.38,6.38-6.38h31.21c3.36,0,6.38,3.02,6.38,6.38v222.14
		c0,3.36-3.02,6.38-6.38,6.38h-31.21c-3.36,0-6.38-3.02-6.38-6.38V202.21z"/>
	<path class="st0" d="M2301.07,192.48c67.11,0,120.8,54.02,120.8,121.14s-53.69,120.46-120.8,120.46s-120.46-53.35-120.46-120.46
		S2233.96,192.48,2301.07,192.48z M2301.07,390.46c42.28,0,77.18-34.56,77.18-76.84s-34.9-77.51-77.18-77.51
		s-76.84,35.23-76.84,77.51S2258.79,390.46,2301.07,390.46z"/>
</g>
<g>
	<g>
		<path class="st1" d="M210.76,592.88c-25.52-44.84-33.3-184.11-25.03-236.7c1.62-10.41,3.99-20.67,7.12-30.61
			c21.59-6.47,42.4-16.71,62.03-30.49c19.54-13.71,37.03-30.33,52.18-49.51c1.91-2.42,5.76-1.26,6.01,1.8
			c2.95,36.45,12.69,71.92,28.86,103.33l0.05,0.12l0.05,0.1c4.96,9.49,10.32,18.45,16.08,26.91c-0.58,6.52-1.66,13.01-2.72,19.45
			c-6.35,37.13-24.78,156.05-32.42,187.81C304.13,636.52,238.38,638.01,210.76,592.88z"/>
		<path class="st2" d="M331.69,112.06c7.62-27.31-15.17-31.88-36.96-33.79c-55.86-5.77-112.92,5.97-162.17,32.77
			c-60.62,32.73-106.41,86.37-128.94,150c-5.54,15.02-6.75,30.84,11.25,36.92c0.42,0.14,0.86,0.26,1.3,0.35
			c133.86,28.87,276.65-58.1,315.43-185.94L331.69,112.06z"/>
		<path class="st3" d="M371.22,145.44c-17.16,69.39-5.69,144.66,31.85,206.18c28.46,45.94,70.14,86.35,121.39,106.31
			c0.46,0.18,0.93,0.34,1.41,0.45c17.75,4.4,25.68-10.4,29.73-25.14c30.01-98.7-1.92-211.51-79.83-280.43
			c-19.95-17.46-42.15-33.36-66.96-43.53c-26.24-9.64-32.63,15.86-37.5,35.83L371.22,145.44z"/>
		<path class="st2" d="M427.62,58.51c10.18-41.03-73.01-79.74-101.25-45.09c-5.07,6.22-3.22,15.43,3.54,18.72
			c25.01,12.17,55.08,22.75,80.31,35.21C417.12,70.76,425.66,66.42,427.62,58.51z"/>
	</g>
</g>
</svg>
