<svg width="52" height="57" viewBox="0 0 52 57" fill="none" xmlns="http://www.w3.org/2000/svg">
<path d="M26.0002 1.99341V28.5M26.0002 28.5L49.6113 15.324M26.0002 28.5L2.38913 15.324M26.0002 28.5V55.0066M49.6113 41.6758L28.1587 29.7045C27.3709 29.2649 26.977 29.045 26.5598 28.9589C26.1906 28.8826 25.8099 28.8826 25.4407 28.9589C25.0235 29.045 24.6296 29.2649 23.8418 29.7045L2.38913 41.6758M51.0002 39.824V17.176C51.0002 16.2199 51.0002 15.7419 50.86 15.3156C50.7359 14.9384 50.5331 14.5922 50.2652 14.3001C49.9622 13.9699 49.5462 13.7378 48.7142 13.2735L28.1587 1.8028C27.3709 1.36318 26.977 1.14338 26.5598 1.0572C26.1906 0.980932 25.8099 0.980932 25.4407 1.0572C25.0235 1.14338 24.6296 1.36318 23.8418 1.8028L3.28627 13.2735C2.45426 13.7378 2.03826 13.9699 1.73534 14.3001C1.46735 14.5922 1.26454 14.9384 1.14048 15.3156C1.00024 15.7419 1.00024 16.2199 1.00024 17.176V39.824C1.00024 40.7801 1.00024 41.2581 1.14048 41.6844C1.26454 42.0616 1.46735 42.4078 1.73534 42.6999C2.03826 43.0301 2.45427 43.2622 3.28628 43.7265L23.8418 55.1972C24.6296 55.6368 25.0235 55.8566 25.4407 55.9428C25.8099 56.0191 26.1906 56.0191 26.5598 55.9428C26.977 55.8566 27.3709 55.6368 28.1587 55.1972L48.7142 43.7265C49.5462 43.2622 49.9622 43.0301 50.2652 42.6999C50.5331 42.4078 50.7359 42.0616 50.86 41.6844C51.0002 41.2581 51.0002 40.7801 51.0002 39.824Z" stroke="url(#paint0_linear_4188_118)" stroke-width="2" stroke-linecap="round" stroke-linejoin="round"/>
<defs>
<linearGradient id="paint0_linear_4188_118" x1="1.00024" y1="28.5" x2="51.0002" y2="28.5" gradientUnits="userSpaceOnUse">
<stop stop-color="#03ACFF"/>
<stop offset="1" stop-color="#F4D731"/>
</linearGradient>
</defs>
</svg>
