<svg width="47" height="43" viewBox="0 0 47 43" fill="none" xmlns="http://www.w3.org/2000/svg">
<path d="M25.75 10.1111L23.24 5.0292C22.5177 3.56661 22.1564 2.83527 21.6176 2.30098C21.1411 1.8285 20.5667 1.46916 19.9362 1.24898C19.2231 1 18.4155 1 16.8002 1H8.2C5.67976 1 4.41965 1 3.45704 1.49653C2.61031 1.93328 1.9219 2.63019 1.49047 3.48738C1 4.46186 1 5.73754 1 8.28889V10.1111M1 10.1111H35.2C38.9804 10.1111 40.8705 10.1111 42.3144 10.8559C43.5845 11.511 44.6171 12.5564 45.2643 13.8422C46 15.3039 46 17.2174 46 21.0444V31.0667C46 34.8937 46 36.8072 45.2643 38.2689C44.6171 39.5547 43.5845 40.6001 42.3144 41.2552C40.8705 42 38.9804 42 35.2 42H11.8C8.01965 42 6.12947 42 4.68556 41.2552C3.41547 40.6001 2.38285 39.5547 1.73571 38.2689C1 36.8072 1 34.8937 1 31.0667V10.1111ZM28 31.75L33.625 26.0556L28 20.3611M19 20.3611L13.375 26.0556L19 31.75" stroke="url(#paint0_linear_1098_309)" stroke-width="2" stroke-linecap="round" stroke-linejoin="round"/>
<defs>
<linearGradient id="paint0_linear_1098_309" x1="1" y1="21.5" x2="46" y2="21.5" gradientUnits="userSpaceOnUse">
<stop stop-color="#80D5FF"/>
<stop offset="0.894231" stop-color="#C6E0AB"/>
<stop offset="1" stop-color="#FFE867"/>
</linearGradient>
</defs>
</svg>
