<?xml version="1.0" encoding="UTF-8"?><svg id="Layer_1" xmlns="http://www.w3.org/2000/svg" width="650" height="175" viewBox="0 0 650 175"><defs><style>.cls-1{fill:#fff;}</style></defs><g id="new"><path class="cls-1" d="M42.06,12.74c-5.75,5.44-10.8,11.4-13.65,17.98-2.85,6.38-3.61,13.49-2.17,20.33,1.14,6.55,4.37,12.55,9.21,17.1,4.79,4.76,11.28,8.68,18.14,12.88,6.82,4.25,14.32,8.85,20.52,15.86,6.23,7.1,9.89,16.08,10.41,25.51.63,9.06-1.61,18.08-6.4,25.79-4.76,7.52-11.51,13.05-18.6,17.27-.98.58-2.24.26-2.83-.72-.52-.87-.33-1.98.44-2.63,5.98-5.1,11.14-11.03,14.17-17.68,3-6.53,3.9-13.83,2.58-20.89-1.04-6.75-4.35-12.95-9.38-17.57-4.94-4.73-11.44-8.5-18.37-12.54-6.88-4.1-14.46-8.42-20.99-15.22-3.3-3.49-5.99-7.5-7.97-11.88-1.88-4.37-3.01-9.01-3.37-13.75-.64-9.15,1.52-18.83,6.62-26.32,4.93-7.13,11.57-12.9,19.32-16.79.98-.52,2.2-.14,2.72.84.43.81.26,1.8-.41,2.42Z"/><path class="cls-1" d="M58.43,9.4c5.41,2.55,10.31,6.07,14.46,10.37,2.19,2.35,4.12,4.92,5.76,7.68,1.67,2.94,2.97,6.07,3.87,9.32.86,3.34,1.31,6.77,1.35,10.21-.07,3.42-.91,20-10.06,27.98-2.41,1.69-5.72,1.11-7.41-1.3,0-.01-.02-.02-.03-.04-1.13-1.75-1.24-3.98-.27-5.82l.12-.22c2.45-4.63,12.66-22.62,1.01-42.48-3.13-4.55-6.69-8.79-10.63-12.66h-.01c-.69-.74-.72-1.87-.08-2.63.47-.57,1.27-.74,1.93-.43Z"/><path class="cls-1" d="M39.95,165.6c-5.41-2.55-10.31-6.07-14.46-10.37-2.19-2.35-4.12-4.92-5.76-7.68-1.67-2.94-2.97-6.07-3.87-9.32-.86-3.34-1.31-6.77-1.34-10.22.07-3.42.91-20,10.06-27.98,2.41-1.69,5.72-1.11,7.41,1.3,0,.01.02.02.03.04,1.14,1.75,1.24,3.98.27,5.82l-.12.22c-2.45,4.63-12.66,22.62-1.01,42.48,3.13,4.55,6.69,8.79,10.63,12.66h.01c.69.74.72,1.87.08,2.63-.47.57-1.27.74-1.93.43h0Z"/><path class="cls-1" d="M124.71,98.7h-7.2c0,8.36,7.74,16.19,18.67,16.19s16.88-6.27,17.81-13.94c1.09-8.52-4.26-14.17-14.25-16.73l-6.97-1.7c-6.74-1.63-7.59-5.11-7.59-7.44,0-4.88,4.8-8.06,9.99-8.06,5.81,0,10.07,3.41,10.07,8.75h7.2c0-9.61-7.44-15.65-17.19-15.65-9.06,0-17.27,6.04-17.27,15.02,0,4.65,1.7,11.08,13.01,13.94l6.89,1.7c4.8,1.08,9.52,3.79,9.06,9.52-.62,4.03-3.95,7.82-10.76,7.82s-11.39-4.8-11.46-9.45Z"/><path class="cls-1" d="M171.4,114.11h-6.97v-36.16h6.97v36.16ZM163.04,64.62c.18,2.69,2.5,4.74,5.2,4.56,2.45-.16,4.4-2.11,4.56-4.56-.18-2.69-2.51-4.73-5.2-4.56-2.45.16-4.4,2.11-4.56,4.56Z"/><path class="cls-1" d="M190.4,94.59c0-7.67,5.11-10.53,10.22-10.53s7.98,3.56,7.98,9.6v20.44h7.05v-20.91c0-10.14-4.96-16.03-13.94-16.03-3.95,0-9.14,1.86-11.31,6.19v-5.42h-7.05v36.16h7.05v-19.51h0Z"/><path class="cls-1" d="M232.78,119.3c-.93.47-4.96,2.71-5.89,3.1,3.21,6.04,9.5,9.8,16.34,9.76,11.92,0,19.74-6.5,19.74-23.54v-30.67h-6.97v5.65c-2.4-4.18-7.67-6.43-12.7-6.43-9.91,0-18.35,7.43-18.35,18.97s8.44,18.74,18.35,18.74c5.03,0,10.53-2.4,12.7-6.66,0,.31.08.54.08.85,0,12-5.04,16.42-12.86,16.42-4.35-.01-8.35-2.38-10.46-6.2h0ZM255.93,96.06c.08,6.5-5.12,11.84-11.62,11.93-.13,0-.25,0-.38,0-6.5,0-11.77-4.57-11.77-11.93-.21-6.42,4.83-11.79,11.25-12,.17,0,.35,0,.52,0,6.43,0,12,4.26,12,12h0Z"/><path class="cls-1" d="M299.72,97.46c0,7.74-5.11,10.53-10.22,10.53s-7.9-3.56-7.9-9.61v-20.44h-7.05v20.91c-.08,10.14,4.88,16.03,13.94,16.03,3.95,0,9.06-1.86,11.23-6.2v5.42h7.05v-36.16h-7.05v19.51Z"/><polygon class="cls-1" points="318.73 58.27 318.73 114.11 325.77 114.11 325.77 58.27 318.73 58.27 318.73 58.27"/><path class="cls-1" d="M366.64,114.11h6.97v-36.16h-6.97v5.42c-2.4-4.1-7.67-6.19-12.7-6.19-9.91,0-18.35,7.28-18.35,18.82s8.44,18.9,18.35,18.9c5.03,0,10.3-2.25,12.7-6.35v5.57h0ZM366.56,95.91c0,7.67-5.58,12.08-12,12.08-6.43.07-11.71-5.09-11.78-11.52,0-.19,0-.38,0-.56-.25-6.3,4.66-11.6,10.95-11.85.27-.01.55-.01.82,0,5.81,0,12,4.1,12,11.85h0Z"/><path class="cls-1" d="M392.65,100.94c0-9.6,2.94-17.04,9.91-17.04,1.85.02,3.68.44,5.34,1.24l1.08-6.58c-1.95-.97-4.1-1.44-6.27-1.39-4.72,0-8.21,2.55-10.07,8.91v-8.13h-7.05v36.16h7.05v-13.16Z"/><path class="cls-1" d="M423.58,114.11h-6.97v-36.16h6.97v36.16ZM415.21,64.62c.18,2.7,2.51,4.74,5.2,4.56,2.45-.16,4.4-2.11,4.56-4.56-.18-2.7-2.51-4.74-5.2-4.56-2.45.16-4.39,2.11-4.56,4.56Z"/><polygon class="cls-1" points="445.07 77.94 445.07 64.31 438.03 64.31 438.03 77.94 431.52 77.94 431.52 83.9 438.03 83.9 438.03 114.11 445.07 114.11 445.07 83.9 452.74 83.9 452.74 77.94 445.07 77.94 445.07 77.94"/><polygon class="cls-1" points="472.87 131.69 495.33 77.94 487.82 77.94 476.98 104.12 466.14 77.94 458.63 77.94 473.11 113.02 465.52 131.69 472.87 131.69 472.87 131.69"/><polygon class="cls-1" points="542.17 114.11 542.17 60.75 534.97 60.75 534.97 100.63 510.88 60.75 503.76 60.75 503.76 114.11 510.96 114.11 510.96 73.91 535.28 114.11 542.17 114.11 542.17 114.11"/><polygon class="cls-1" points="557.24 60.75 557.24 114.11 589.61 114.11 589.61 107.37 564.44 107.37 564.44 91.26 585.74 91.26 585.74 84.53 564.44 84.53 564.44 67.49 588.84 67.49 588.84 60.75 557.24 60.75 557.24 60.75"/><polygon class="cls-1" points="596.65 60.75 596.65 67.57 612.84 67.57 612.84 114.11 620.11 114.11 620.11 67.57 636.3 67.57 636.3 60.75 596.65 60.75 596.65 60.75"/></g></svg>