<svg xmlns="http://www.w3.org/2000/svg" viewBox="0 0 3205.6 1480.6">
<polygon fill="#007bc4" points="0 0 0 7.4 49.2 92.5 0 177.7 0 185.1 53.4 92.5 0 0"/>
<polygon fill="#007bc4" points="49.2 277.6 0 362.7 0 370.1 53.4 277.6 0 185.1 0 192.5 49.2 277.6"/>
<polygon fill="#007bc4" points="0 370.1 0 377.5 49.2 462.7 0 547.8 0 555.2 53.4 462.7 0 370.1"/>
<polygon fill="#007bc4" points="0 555.2 0 562.6 49.2 647.8 0 732.9 0 740.3 53.4 647.8 0 555.2"/>
<polygon fill="#007bc4" points="0 740.3 0 747.7 49.2 832.8 0 918.0 0 925.4 53.4 832.8 0 740.3"/>
<polygon fill="#007bc4" points="49.2 1017.9 0 1103.0 0 1110.4 53.4 1017.9 0 925.4 0 932.8 49.2 1017.9"/>
<path fill="#007bc4" d="M160.3,1203.0l53.4-92.5-53.4-92.5,53.4-92.5-53.4-92.5,53.4-92.5-53.4-92.5,53.4-92.5-53.4-92.5,53.4-92.5-53.4-92.5,53.4-92.5-53.4-92.5L213.7,0h-4.3l-51.3,88.8H55.6L4.3,0H0l53.4,92.5L0,185.1l53.4,92.5L0,370.1l53.4,92.5L0,555.2l53.4,92.5L0,740.3l53.4,92.5L0,925.4l53.4,92.5L0,1110.4l53.4,92.5L0,1295.5l53.4,92.5L0,1480.6h4.3l51.3-88.8h102.6l51.3,88.8h4.3l-53.4-92.5,53.4-92.5-53.4-92.5ZM4.3,185.1l51.3-88.8h102.6l51.3,88.8-51.3,88.8H55.6L4.3,185.1ZM4.3,370.1l51.3-88.8h102.6l51.3,88.8-51.3,88.8H55.6L4.3,370.1ZM4.3,555.2l51.3-88.8h102.6l51.3,88.8-51.3,88.8H55.6l-51.3-88.8ZM4.3,740.3l51.3-88.8h102.6l51.3,88.8-51.3,88.8H55.6l-51.3-88.8ZM4.3,925.4l51.3-88.8h102.6l51.3,88.8-51.3,88.8H55.6l-51.3-88.8ZM4.3,1110.4l51.3-88.8h102.6l51.3,88.8-51.3,88.8H55.6l-51.3-88.8ZM158.1,1384.3H55.6l-51.3-88.8,51.3-88.8h102.6l51.3,88.8-51.3,88.8Z"/>
<polygon fill="#007bc4" points="0 1110.4 0 1117.8 49.2 1203.0 0 1288.1 0 1295.5 53.4 1203.0 0 1110.4"/>
<polygon fill="#007bc4" points="0 1295.5 0 1302.9 49.2 1388.0 0 1473.2 0 1480.6 53.4 1388.0 0 1295.5"/>
<path fill="#007bc4" d="M480.8,1203.0l53.4-92.5-53.4-92.5,53.4-92.5-53.4-92.5,53.4-92.5-53.4-92.5,53.4-92.5-53.4-92.5,53.4-92.5-53.4-92.5,53.4-92.5-53.4-92.5L534.3,0h-4.3l-51.3,88.8h-102.6L324.8,0h-4.3l53.4,92.5-53.4,92.5,53.4,92.5-53.4,92.5,53.4,92.5-53.4,92.5,53.4,92.5-53.4,92.5,53.4,92.5-53.4,92.5,53.4,92.5-53.4,92.5,53.4,92.5-53.4,92.5,53.4,92.5-53.4,92.5h4.3l51.3-88.8h102.6l51.3,88.8h4.3l-53.4-92.5,53.4-92.5-53.4-92.5ZM324.8,185.1l51.3-88.8h102.6l51.3,88.8-51.3,88.8h-102.6l-51.3-88.8ZM324.8,370.1l51.3-88.8h102.6l51.3,88.8-51.3,88.8h-102.6l-51.3-88.8ZM324.8,555.2l51.3-88.8h102.6l51.3,88.8-51.3,88.8h-102.6l-51.3-88.8ZM324.8,740.3l51.3-88.8h102.6l51.3,88.8-51.3,88.8h-102.6l-51.3-88.8ZM324.8,925.4l51.3-88.8h102.6l51.3,88.8-51.3,88.8h-102.6l-51.3-88.8ZM324.8,1110.4l51.3-88.8h102.6l51.3,88.8-51.3,88.8h-102.6l-51.3-88.8ZM478.7,1384.3h-102.6l-51.3-88.8,51.3-88.8h102.6l51.3,88.8-51.3,88.8Z"/>
<path fill="#007bc4" d="M374.0,1388.0l-53.4-92.5s53.4-92.5,53.4-92.5l-53.4-92.5s53.4-92.5,53.4-92.5l-53.4-92.5s53.4-92.5,53.4-92.5l-53.4-92.5s53.4-92.5,53.4-92.5l-53.4-92.5s53.4-92.5,53.4-92.5l-53.4-92.5s53.4-92.5,53.4-92.5l-53.4-92.5s53.4-92.5,53.4-92.5L320.6,0s-106.9,0-106.9,0l-53.4,92.5,53.4,92.5-53.4,92.5,53.4,92.5-53.4,92.5,53.4,92.5-53.4,92.5,53.4,92.5-53.4,92.5,53.4,92.5-53.4,92.5,53.4,92.5-53.4,92.5,53.4,92.5-53.4,92.5,53.4,92.5h106.9s53.4-92.5,53.4-92.5ZM164.6,92.5L215.8,3.7h102.6l2.1,3.7s49.2,85.1,49.2,85.1l-49.2,85.1-2.1,3.7h-102.6l-51.3-88.8ZM164.6,277.6l51.3-88.8h102.6l2.1,3.7,49.2,85.1-49.2,85.1-2.1,3.7h-102.6l-51.3-88.8ZM164.6,462.7l51.3-88.8h102.6l2.1,3.7,49.2,85.1-49.2,85.1s-2.1,3.7-2.1,3.7h-102.6l-51.3-88.8ZM164.6,647.8l51.3-88.8h102.6l2.1,3.7,49.2,85.1-49.2,85.1s-2.1,3.7-2.1,3.7h-102.6l-51.3-88.8ZM164.6,832.8l51.3-88.8h102.6l2.1,3.7,49.2,85.1-49.2,85.1-2.1,3.7h-102.6l-51.3-88.8ZM164.6,1017.9l51.3-88.8h102.6l2.1,3.7,49.2,85.1-49.2,85.1-2.1,3.7h-102.6l-51.3-88.8ZM164.6,1203.0l51.3-88.8h102.6l2.1,3.7,49.2,85.1-49.2,85.1-2.1,3.7h-102.6l-51.3-88.8ZM318.4,1476.9h-102.6l-51.3-88.8,51.3-88.8h102.6l2.1,3.7,49.2,85.1-49.2,85.1-2.1,3.7Z"/>
<path fill="#007bc4" d="M694.5,1388.0l-53.4-92.5s53.4-92.5,53.4-92.5l-53.4-92.5s53.4-92.5,53.4-92.5l-53.4-92.5s53.4-92.5,53.4-92.5l-53.4-92.5s53.4-92.5,53.4-92.5l-53.4-92.5s53.4-92.5,53.4-92.5l-53.4-92.5s53.4-92.5,53.4-92.5l-53.4-92.5s53.4-92.5,53.4-92.5L641.1,0s-106.9,0-106.9,0l-53.4,92.5,53.4,92.5-53.4,92.5,53.4,92.5-53.4,92.5,53.4,92.5-53.4,92.5,53.4,92.5-53.4,92.5,53.4,92.5-53.4,92.5,53.4,92.5-53.4,92.5,53.4,92.5-53.4,92.5,53.4,92.5h106.9s53.4-92.5,53.4-92.5ZM485.1,92.5L536.4,3.7h102.6l2.1,3.7s49.2,85.1,49.2,85.1l-49.2,85.1-2.1,3.7h-102.6l-51.3-88.8ZM485.1,277.6l51.3-88.8h102.6l2.1,3.7,49.2,85.1-49.2,85.1-2.1,3.7h-102.6l-51.3-88.8ZM485.1,462.7l51.3-88.8h102.6l2.1,3.7,49.2,85.1-49.2,85.1s-2.1,3.7-2.1,3.7h-102.6l-51.3-88.8ZM485.1,647.8l51.3-88.8h102.6l2.1,3.7,49.2,85.1-49.2,85.1s-2.1,3.7-2.1,3.7h-102.6l-51.3-88.8ZM485.1,832.8l51.3-88.8h102.6l2.1,3.7,49.2,85.1-49.2,85.1-2.1,3.7h-102.6l-51.3-88.8ZM485.1,1017.9l51.3-88.8h102.6l2.1,3.7,49.2,85.1-49.2,85.1-2.1,3.7h-102.6l-51.3-88.8ZM485.1,1203.0l51.3-88.8h102.6l2.1,3.7,49.2,85.1-49.2,85.1-2.1,3.7h-102.6l-51.3-88.8ZM639.0,1476.9h-102.6l-51.3-88.8,51.3-88.8h102.6l2.1,3.7,49.2,85.1-49.2,85.1-2.1,3.7Z"/>
<path fill="#007bc4" d="M1015.1,1388.0l-53.4-92.5s53.4-92.5,53.4-92.5l-53.4-92.5s53.4-92.5,53.4-92.5l-53.4-92.5s53.4-92.5,53.4-92.5l-53.4-92.5s53.4-92.5,53.4-92.5l-53.4-92.5s53.4-92.5,53.4-92.5l-53.4-92.5s53.4-92.5,53.4-92.5l-53.4-92.5s53.4-92.5,53.4-92.5L961.7,0s-106.9,0-106.9,0h-4.3l-51.3,88.8h-102.6L645.4,0h-4.3l53.4,92.5-53.4,92.5,53.4,92.5-53.4,92.5,53.4,92.5-53.4,92.5,53.4,92.5-53.4,92.5,53.4,92.5-53.4,92.5,53.4,92.5-53.4,92.5,53.4,92.5-53.4,92.5,53.4,92.5-53.4,92.5h4.3l51.3-88.8h102.6l51.3,88.8h111.1s53.4-92.5,53.4-92.5ZM1010.8,1203.0l-49.2,85.1-2.1,3.7h-102.6l-51.3-88.8,51.3-88.8h102.6l2.1,3.7,49.2,85.1ZM1010.8,1017.9l-49.2,85.1-2.1,3.7h-102.6l-51.3-88.8,51.3-88.8h102.6l2.1,3.7,49.2,85.1ZM1010.8,832.8l-49.2,85.1-2.1,3.7h-102.6l-51.3-88.8,51.3-88.8h102.6l2.1,3.7,49.2,85.1ZM1010.8,647.8l-49.2,85.1s-2.1,3.7-2.1,3.7h-102.6l-51.3-88.8,51.3-88.8h102.6l2.1,3.7,49.2,85.1ZM1010.8,462.7l-49.2,85.1s-2.1,3.7-2.1,3.7h-102.6l-51.3-88.8,51.3-88.8h102.6l2.1,3.7,49.2,85.1ZM1010.8,277.6l-49.2,85.1-2.1,3.7h-102.6l-51.3-88.8,51.3-88.8h102.6l2.1,3.7,49.2,85.1ZM857.0,3.7h102.6l2.1,3.7s49.2,85.1,49.2,85.1l-49.2,85.1-2.1,3.7h-102.6l-51.3-88.8L857.0,3.7ZM645.4,185.1l51.3-88.8h102.6l51.3,88.8-51.3,88.8h-102.6l-51.3-88.8ZM645.4,370.1l51.3-88.8h102.6l51.3,88.8-51.3,88.8h-102.6l-51.3-88.8ZM645.4,555.2l51.3-88.8h102.6l51.3,88.8-51.3,88.8h-102.6l-51.3-88.8ZM645.4,740.3l51.3-88.8h102.6l51.3,88.8-51.3,88.8h-102.6l-51.3-88.8ZM645.4,925.4l51.3-88.8h102.6l51.3,88.8-51.3,88.8h-102.6l-51.3-88.8ZM645.4,1110.4l51.3-88.8h102.6l51.3,88.8-51.3,88.8h-102.6l-51.3-88.8ZM696.7,1384.3l-51.3-88.8,51.3-88.8h102.6l51.3,88.8-51.3,88.8h-102.6ZM959.5,1476.9h-102.6l-51.3-88.8,51.3-88.8h102.6l2.1,3.7,49.2,85.1-49.2,85.1-2.1,3.7Z"/>
<path fill="#007bc4" d="M1335.6,1388.0l-53.4-92.5s53.4-92.5,53.4-92.5l-53.4-92.5s53.4-92.5,53.4-92.5l-53.4-92.5s53.4-92.5,53.4-92.5l-53.4-92.5s53.4-92.5,53.4-92.5l-53.4-92.5s53.4-92.5,53.4-92.5l-53.4-92.5s53.4-92.5,53.4-92.5l-53.4-92.5s53.4-92.5,53.4-92.5L1282.2,0s-106.9,0-106.9,0h-4.3l-51.3,88.8h-102.6L965.9,0h-4.3l53.4,92.5-53.4,92.5,53.4,92.5-53.4,92.5,53.4,92.5-53.4,92.5,53.4,92.5-53.4,92.5,53.4,92.5-53.4,92.5,53.4,92.5-53.4,92.5,53.4,92.5-53.4,92.5,53.4,92.5-53.4,92.5h4.3l51.3-88.8h102.6l51.3,88.8h111.1s53.4-92.5,53.4-92.5ZM1331.4,1203.0l-49.2,85.1-2.1,3.7h-102.6l-51.3-88.8,51.3-88.8h102.6l2.1,3.7,49.2,85.1ZM1331.4,1017.9l-49.2,85.1-2.1,3.7h-102.6l-51.3-88.8,51.3-88.8h102.6l2.1,3.7,49.2,85.1ZM1331.4,832.8l-49.2,85.1-2.1,3.7h-102.6l-51.3-88.8,51.3-88.8h102.6l2.1,3.7,49.2,85.1ZM1331.4,647.8l-49.2,85.1s-2.1,3.7-2.1,3.7h-102.6l-51.3-88.8,51.3-88.8h102.6l2.1,3.7,49.2,85.1ZM1331.4,462.7l-49.2,85.1s-2.1,3.7-2.1,3.7h-102.6l-51.3-88.8,51.3-88.8h102.6l2.1,3.7,49.2,85.1ZM1331.4,277.6l-49.2,85.1-2.1,3.7h-102.6l-51.3-88.8,51.3-88.8h102.6l2.1,3.7,49.2,85.1ZM1177.5,3.7h102.6l2.1,3.7s49.2,85.1,49.2,85.1l-49.2,85.1-2.1,3.7h-102.6l-51.3-88.8,51.3-88.8ZM965.9,185.1l51.3-88.8h102.6l51.3,88.8-51.3,88.8h-102.6l-51.3-88.8ZM965.9,370.1l51.3-88.8h102.6l51.3,88.8-51.3,88.8h-102.6l-51.3-88.8ZM965.9,555.2l51.3-88.8h102.6l51.3,88.8-51.3,88.8h-102.6l-51.3-88.8ZM965.9,740.3l51.3-88.8h102.6l51.3,88.8-51.3,88.8h-102.6l-51.3-88.8ZM965.9,925.4l51.3-88.8h102.6l51.3,88.8-51.3,88.8h-102.6l-51.3-88.8ZM965.9,1110.4l51.3-88.8h102.6l51.3,88.8-51.3,88.8h-102.6l-51.3-88.8ZM1017.2,1384.3l-51.3-88.8,51.3-88.8h102.6l51.3,88.8-51.3,88.8h-102.6ZM1280.1,1476.9h-102.6l-51.3-88.8,51.3-88.8h102.6l2.1,3.7,49.2,85.1-49.2,85.1-2.1,3.7Z"/>
<path fill="#007bc4" d="M3098.7,0h-4.3l-51.3,88.8h-102.6L2889.3,0h-4.3l53.4,92.5-53.4,92.5,53.4,92.5-53.4,92.5,53.4,92.5-53.4,92.5,53.4,92.5-53.4,92.5,53.4,92.5-53.4,92.5,53.4,92.5-53.4,92.5,53.4,92.5-53.4,92.5,53.4,92.5-53.4,92.5h4.3l51.3-88.8h102.6l51.3,88.8h111.1v-7.4l-2.1,3.7h-102.6l-51.3-88.8,51.3-88.8h102.6l2.1,3.7v-14.8l-2.1,3.7h-102.6l-51.3-88.8,51.3-88.8h102.6l2.1,3.7v-7.4v-7.4l-2.1,3.7h-102.6l-51.3-88.8,51.3-88.8h102.6l2.1,3.7v-7.4v-7.4l-2.1,3.7h-102.6l-51.3-88.8,51.3-88.8h102.6l2.1,3.7v-7.4v-7.4l-2.1,3.7h-102.6l-51.3-88.8,51.3-88.8h102.6l2.1,3.7v-7.4v-7.4l-2.1,3.7h-102.6l-51.3-88.8,51.3-88.8h102.6l2.1,3.7v-7.4v-7.4l-2.1,3.7h-102.6l-51.3-88.8,51.3-88.8h102.6l2.1,3.7v-7.4v-7.4l-2.1,3.7h-102.6l-51.3-88.8,51.3-88.8h102.6l2.1,3.7V0s-106.9,0-106.9,0ZM3094.4,1295.5l-51.3,88.8h-102.6l-51.3-88.8,51.3-88.8h102.6l51.3,88.8ZM3094.4,1110.4l-51.3,88.8h-102.6l-51.3-88.8,51.3-88.8h102.6l51.3,88.8ZM3094.4,925.4l-51.3,88.8h-102.6l-51.3-88.8,51.3-88.8h102.6l51.3,88.8ZM3094.4,740.3l-51.3,88.8h-102.6l-51.3-88.8,51.3-88.8h102.6l51.3,88.8ZM3094.4,555.2l-51.3,88.8h-102.6l-51.3-88.8,51.3-88.8h102.6l51.3,88.8ZM3094.4,370.1l-51.3,88.8h-102.6l-51.3-88.8,51.3-88.8h102.6l51.3,88.8ZM3094.4,185.1l-51.3,88.8h-102.6l-51.3-88.8,51.3-88.8h102.6l51.3,88.8Z"/>
<path fill="#007bc4" d="M1763.1,1203.0l53.4-92.5-53.4-92.5,53.4-92.5-53.4-92.5,53.4-92.5-53.4-92.5,53.4-92.5-53.4-92.5,53.4-92.5-53.4-92.5,53.4-92.5-53.4-92.5L1816.5,0h-4.3l-51.3,88.8h-102.6L1607.1,0h-4.3l53.4,92.5-53.4,92.5,53.4,92.5-53.4,92.5,53.4,92.5-53.4,92.5,53.4,92.5-53.4,92.5,53.4,92.5-53.4,92.5,53.4,92.5-53.4,92.5,53.4,92.5-53.4,92.5,53.4,92.5-53.4,92.5h4.3l51.3-88.8h102.6l51.3,88.8h4.3l-53.4-92.5,53.4-92.5-53.4-92.5ZM1607.1,185.1l51.3-88.8h102.6l51.3,88.8-51.3,88.8h-102.6l-51.3-88.8ZM1607.1,370.1l51.3-88.8h102.6l51.3,88.8-51.3,88.8h-102.6l-51.3-88.8ZM1607.1,555.2l51.3-88.8h102.6l51.3,88.8-51.3,88.8h-102.6l-51.3-88.8ZM1607.1,740.3l51.3-88.8h102.6l51.3,88.8-51.3,88.8h-102.6l-51.3-88.8ZM1607.1,925.4l51.3-88.8h102.6l51.3,88.8-51.3,88.8h-102.6l-51.3-88.8ZM1607.1,1110.4l51.3-88.8h102.6l51.3,88.8-51.3,88.8h-102.6l-51.3-88.8ZM1760.9,1384.3h-102.6l-51.3-88.8,51.3-88.8h102.6l51.3,88.8-51.3,88.8Z"/>
<path fill="#007bc4" d="M1656.2,1388.0l-53.4-92.5s53.4-92.5,53.4-92.5l-53.4-92.5s53.4-92.5,53.4-92.5l-53.4-92.5s53.4-92.5,53.4-92.5l-53.4-92.5s53.4-92.5,53.4-92.5l-53.4-92.5s53.4-92.5,53.4-92.5l-53.4-92.5s53.4-92.5,53.4-92.5l-53.4-92.5s53.4-92.5,53.4-92.5L1602.8,0s-106.9,0-106.9,0h-4.3l-51.3,88.8h-102.6L1286.5,0h-4.3l53.4,92.5-53.4,92.5,53.4,92.5-53.4,92.5,53.4,92.5-53.4,92.5,53.4,92.5-53.4,92.5,53.4,92.5-53.4,92.5,53.4,92.5-53.4,92.5,53.4,92.5-53.4,92.5,53.4,92.5-53.4,92.5h4.3l51.3-88.8h102.6l51.3,88.8h111.1s53.4-92.5,53.4-92.5ZM1651.9,1203.0l-49.2,85.1-2.1,3.7h-102.6l-51.3-88.8,51.3-88.8h102.6l2.1,3.7,49.2,85.1ZM1651.9,1017.9l-49.2,85.1-2.1,3.7h-102.6l-51.3-88.8,51.3-88.8h102.6l2.1,3.7,49.2,85.1ZM1651.9,832.8l-49.2,85.1-2.1,3.7h-102.6l-51.3-88.8,51.3-88.8h102.6l2.1,3.7,49.2,85.1ZM1651.9,647.8l-49.2,85.1s-2.1,3.7-2.1,3.7h-102.6l-51.3-88.8,51.3-88.8h102.6l2.1,3.7,49.2,85.1ZM1651.9,462.7l-49.2,85.1s-2.1,3.7-2.1,3.7h-102.6l-51.3-88.8,51.3-88.8h102.6l2.1,3.7,49.2,85.1ZM1651.9,277.6l-49.2,85.1-2.1,3.7h-102.6l-51.3-88.8,51.3-88.8h102.6l2.1,3.7,49.2,85.1ZM1498.1,3.7h102.6l2.1,3.7s49.2,85.1,49.2,85.1l-49.2,85.1-2.1,3.7h-102.6l-51.3-88.8,51.3-88.8ZM1286.5,185.1l51.3-88.8h102.6l51.3,88.8-51.3,88.8h-102.6l-51.3-88.8ZM1286.5,370.1l51.3-88.8h102.6l51.3,88.8-51.3,88.8h-102.6l-51.3-88.8ZM1286.5,555.2l51.3-88.8h102.6l51.3,88.8-51.3,88.8h-102.6l-51.3-88.8ZM1286.5,740.3l51.3-88.8h102.6l51.3,88.8-51.3,88.8h-102.6l-51.3-88.8ZM1286.5,925.4l51.3-88.8h102.6l51.3,88.8-51.3,88.8h-102.6l-51.3-88.8ZM1286.5,1110.4l51.3-88.8h102.6l51.3,88.8-51.3,88.8h-102.6l-51.3-88.8ZM1337.8,1384.3l-51.3-88.8,51.3-88.8h102.6l51.3,88.8-51.3,88.8h-102.6ZM1600.6,1476.9h-102.6l-51.3-88.8,51.3-88.8h102.6l2.1,3.7,49.2,85.1-49.2,85.1-2.1,3.7Z"/>
<path fill="#007bc4" d="M2083.6,1203.0l53.4-92.5-53.4-92.5,53.4-92.5-53.4-92.5,53.4-92.5-53.4-92.5,53.4-92.5-53.4-92.5,53.4-92.5-53.4-92.5,53.4-92.5-53.4-92.5L2137.0,0h-4.3l-51.3,88.8h-102.6L1927.6,0h-4.3l53.4,92.5-53.4,92.5,53.4,92.5-53.4,92.5,53.4,92.5-53.4,92.5,53.4,92.5-53.4,92.5,53.4,92.5-53.4,92.5,53.4,92.5-53.4,92.5,53.4,92.5-53.4,92.5,53.4,92.5-53.4,92.5h4.3l51.3-88.8h102.6l51.3,88.8h4.3l-53.4-92.5,53.4-92.5-53.4-92.5ZM1927.6,185.1l51.3-88.8h102.6l51.3,88.8-51.3,88.8h-102.6l-51.3-88.8ZM1927.6,370.1l51.3-88.8h102.6l51.3,88.8-51.3,88.8h-102.6l-51.3-88.8ZM1927.6,555.2l51.3-88.8h102.6l51.3,88.8-51.3,88.8h-102.6l-51.3-88.8ZM1927.6,740.3l51.3-88.8h102.6l51.3,88.8-51.3,88.8h-102.6l-51.3-88.8ZM1927.6,925.4l51.3-88.8h102.6l51.3,88.8-51.3,88.8h-102.6l-51.3-88.8ZM1927.6,1110.4l51.3-88.8h102.6l51.3,88.8-51.3,88.8h-102.6l-51.3-88.8ZM2081.5,1384.3h-102.6l-51.3-88.8,51.3-88.8h102.6l51.3,88.8-51.3,88.8Z"/>
<path fill="#007bc4" d="M1976.8,1388.0l-53.4-92.5s53.4-92.5,53.4-92.5l-53.4-92.5s53.4-92.5,53.4-92.5l-53.4-92.5s53.4-92.5,53.4-92.5l-53.4-92.5s53.4-92.5,53.4-92.5l-53.4-92.5s53.4-92.5,53.4-92.5l-53.4-92.5s53.4-92.5,53.4-92.5l-53.4-92.5s53.4-92.5,53.4-92.5L1923.3,0s-106.9,0-106.9,0l-53.4,92.5,53.4,92.5-53.4,92.5,53.4,92.5-53.4,92.5,53.4,92.5-53.4,92.5,53.4,92.5-53.4,92.5,53.4,92.5-53.4,92.5,53.4,92.5-53.4,92.5,53.4,92.5-53.4,92.5,53.4,92.5h106.9s53.4-92.5,53.4-92.5ZM1767.3,92.5l51.3-88.8h102.6l2.1,3.7s49.2,85.1,49.2,85.1l-49.2,85.1-2.1,3.7h-102.6l-51.3-88.8ZM1767.3,277.6l51.3-88.8h102.6l2.1,3.7,49.2,85.1-49.2,85.1-2.1,3.7h-102.6l-51.3-88.8ZM1767.3,462.7l51.3-88.8h102.6l2.1,3.7,49.2,85.1-49.2,85.1s-2.1,3.7-2.1,3.7h-102.6l-51.3-88.8ZM1767.3,647.8l51.3-88.8h102.6l2.1,3.7,49.2,85.1-49.2,85.1s-2.1,3.7-2.1,3.7h-102.6l-51.3-88.8ZM1767.3,832.8l51.3-88.8h102.6l2.1,3.7,49.2,85.1-49.2,85.1-2.1,3.7h-102.6l-51.3-88.8ZM1767.3,1017.9l51.3-88.8h102.6l2.1,3.7,49.2,85.1-49.2,85.1-2.1,3.7h-102.6l-51.3-88.8ZM1767.3,1203.0l51.3-88.8h102.6l2.1,3.7,49.2,85.1-49.2,85.1-2.1,3.7h-102.6l-51.3-88.8ZM1921.2,1476.9h-102.6l-51.3-88.8,51.3-88.8h102.6l2.1,3.7,49.2,85.1-49.2,85.1-2.1,3.7Z"/>
<path fill="#007bc4" d="M2297.3,1388.0l-53.4-92.5s53.4-92.5,53.4-92.5l-53.4-92.5s53.4-92.5,53.4-92.5l-53.4-92.5s53.4-92.5,53.4-92.5l-53.4-92.5s53.4-92.5,53.4-92.5l-53.4-92.5s53.4-92.5,53.4-92.5l-53.4-92.5s53.4-92.5,53.4-92.5l-53.4-92.5s53.4-92.5,53.4-92.5L2243.9,0s-106.9,0-106.9,0l-53.4,92.5,53.4,92.5-53.4,92.5,53.4,92.5-53.4,92.5,53.4,92.5-53.4,92.5,53.4,92.5-53.4,92.5,53.4,92.5-53.4,92.5,53.4,92.5-53.4,92.5,53.4,92.5-53.4,92.5,53.4,92.5h106.9s53.4-92.5,53.4-92.5ZM2087.9,92.5l51.3-88.8h102.6l2.1,3.7s49.2,85.1,49.2,85.1l-49.2,85.1-2.1,3.7h-102.6l-51.3-88.8ZM2087.9,277.6l51.3-88.8h102.6l2.1,3.7,49.2,85.1-49.2,85.1-2.1,3.7h-102.6l-51.3-88.8ZM2087.9,462.7l51.3-88.8h102.6l2.1,3.7,49.2,85.1-49.2,85.1s-2.1,3.7-2.1,3.7h-102.6l-51.3-88.8ZM2087.9,647.8l51.3-88.8h102.6l2.1,3.7,49.2,85.1-49.2,85.1s-2.1,3.7-2.1,3.7h-102.6l-51.3-88.8ZM2087.9,832.8l51.3-88.8h102.6l2.1,3.7,49.2,85.1-49.2,85.1-2.1,3.7h-102.6l-51.3-88.8ZM2087.9,1017.9l51.3-88.8h102.6l2.1,3.7,49.2,85.1-49.2,85.1-2.1,3.7h-102.6l-51.3-88.8ZM2087.9,1203.0l51.3-88.8h102.6l2.1,3.7,49.2,85.1-49.2,85.1-2.1,3.7h-102.6l-51.3-88.8ZM2241.8,1476.9h-102.6l-51.3-88.8,51.3-88.8h102.6l2.1,3.7,49.2,85.1-49.2,85.1-2.1,3.7Z"/>
<path fill="#007bc4" d="M2617.9,1388.0l-53.4-92.5s53.4-92.5,53.4-92.5l-53.4-92.5s53.4-92.5,53.4-92.5l-53.4-92.5s53.4-92.5,53.4-92.5l-53.4-92.5s53.4-92.5,53.4-92.5l-53.4-92.5s53.4-92.5,53.4-92.5l-53.4-92.5s53.4-92.5,53.4-92.5l-53.4-92.5s53.4-92.5,53.4-92.5L2564.4,0s-106.9,0-106.9,0h-4.3l-51.3,88.8h-102.6L2248.2,0h-4.3l53.4,92.5-53.4,92.5,53.4,92.5-53.4,92.5,53.4,92.5-53.4,92.5,53.4,92.5-53.4,92.5,53.4,92.5-53.4,92.5,53.4,92.5-53.4,92.5,53.4,92.5-53.4,92.5,53.4,92.5-53.4,92.5h4.3l51.3-88.8h102.6l51.3,88.8h111.1s53.4-92.5,53.4-92.5ZM2613.6,1203.0l-49.2,85.1-2.1,3.7h-102.6l-51.3-88.8,51.3-88.8h102.6l2.1,3.7,49.2,85.1ZM2613.6,1017.9l-49.2,85.1-2.1,3.7h-102.6l-51.3-88.8,51.3-88.8h102.6l2.1,3.7,49.2,85.1ZM2613.6,832.8l-49.2,85.1-2.1,3.7h-102.6l-51.3-88.8,51.3-88.8h102.6l2.1,3.7,49.2,85.1ZM2613.6,647.8l-49.2,85.1s-2.1,3.7-2.1,3.7h-102.6l-51.3-88.8,51.3-88.8h102.6l2.1,3.7,49.2,85.1ZM2613.6,462.7l-49.2,85.1s-2.1,3.7-2.1,3.7h-102.6l-51.3-88.8,51.3-88.8h102.6l2.1,3.7,49.2,85.1ZM2613.6,277.6l-49.2,85.1-2.1,3.7h-102.6l-51.3-88.8,51.3-88.8h102.6l2.1,3.7,49.2,85.1ZM2459.7,3.7h102.6l2.1,3.7s49.2,85.1,49.2,85.1l-49.2,85.1-2.1,3.7h-102.6l-51.3-88.8,51.3-88.8ZM2248.2,185.1l51.3-88.8h102.6l51.3,88.8-51.3,88.8h-102.6l-51.3-88.8ZM2248.2,370.1l51.3-88.8h102.6l51.3,88.8-51.3,88.8h-102.6l-51.3-88.8ZM2248.2,555.2l51.3-88.8h102.6l51.3,88.8-51.3,88.8h-102.6l-51.3-88.8ZM2248.2,740.3l51.3-88.8h102.6l51.3,88.8-51.3,88.8h-102.6l-51.3-88.8ZM2248.2,925.4l51.3-88.8h102.6l51.3,88.8-51.3,88.8h-102.6l-51.3-88.8ZM2248.2,1110.4l51.3-88.8h102.6l51.3,88.8-51.3,88.8h-102.6l-51.3-88.8ZM2299.5,1384.3l-51.3-88.8,51.3-88.8h102.6l51.3,88.8-51.3,88.8h-102.6ZM2562.3,1476.9h-102.6l-51.3-88.8,51.3-88.8h102.6l2.1,3.7,49.2,85.1-49.2,85.1-2.1,3.7Z"/>
<path fill="#007bc4" d="M2938.4,1388.0l-53.4-92.5s53.4-92.5,53.4-92.5l-53.4-92.5s53.4-92.5,53.4-92.5l-53.4-92.5s53.4-92.5,53.4-92.5l-53.4-92.5s53.4-92.5,53.4-92.5l-53.4-92.5s53.4-92.5,53.4-92.5l-53.4-92.5s53.4-92.5,53.4-92.5l-53.4-92.5s53.4-92.5,53.4-92.5L2885,0s-106.9,0-106.9,0h-4.3l-51.3,88.8h-102.6L2568.7,0h-4.3l53.4,92.5-53.4,92.5,53.4,92.5-53.4,92.5,53.4,92.5-53.4,92.5,53.4,92.5-53.4,92.5,53.4,92.5-53.4,92.5,53.4,92.5-53.4,92.5,53.4,92.5-53.4,92.5,53.4,92.5-53.4,92.5h4.3l51.3-88.8h102.6l51.3,88.8h111.1s53.4-92.5,53.4-92.5ZM2934.2,1203.0l-49.2,85.1-2.1,3.7h-102.6l-51.3-88.8,51.3-88.8h102.6l2.1,3.7,49.2,85.1ZM2934.2,1017.9l-49.2,85.1-2.1,3.7h-102.6l-51.3-88.8,51.3-88.8h102.6l2.1,3.7,49.2,85.1ZM2934.2,832.8l-49.2,85.1-2.1,3.7h-102.6l-51.3-88.8,51.3-88.8h102.6l2.1,3.7,49.2,85.1ZM2934.2,647.8l-49.2,85.1s-2.1,3.7-2.1,3.7h-102.6l-51.3-88.8,51.3-88.8h102.6l2.1,3.7,49.2,85.1ZM2934.2,462.7l-49.2,85.1s-2.1,3.7-2.1,3.7h-102.6l-51.3-88.8,51.3-88.8h102.6l2.1,3.7,49.2,85.1ZM2934.2,277.6l-49.2,85.1-2.1,3.7h-102.6l-51.3-88.8,51.3-88.8h102.6l2.1,3.7,49.2,85.1ZM2780.3,3.7h102.6l2.1,3.7s49.2,85.1,49.2,85.1l-49.2,85.1-2.1,3.7h-102.6l-51.3-88.8,51.3-88.8ZM2568.7,185.1l51.3-88.8h102.6l51.3,88.8-51.3,88.8h-102.6l-51.3-88.8ZM2568.7,370.1l51.3-88.8h102.6l51.3,88.8-51.3,88.8h-102.6l-51.3-88.8ZM2568.7,555.2l51.3-88.8h102.6l51.3,88.8-51.3,88.8h-102.6l-51.3-88.8ZM2568.7,740.3l51.3-88.8h102.6l51.3,88.8-51.3,88.8h-102.6l-51.3-88.8ZM2568.7,925.4l51.3-88.8h102.6l51.3,88.8-51.3,88.8h-102.6l-51.3-88.8ZM2568.7,1110.4l51.3-88.8h102.6l51.3,88.8-51.3,88.8h-102.6l-51.3-88.8ZM2620.0,1384.3l-51.3-88.8,51.3-88.8h102.6l51.3,88.8-51.3,88.8h-102.6ZM2882.9,1476.9h-102.6l-51.3-88.8,51.3-88.8h102.6l2.1,3.7,49.2,85.1-49.2,85.1-2.1,3.7Z"/>
</svg>