<?xml version="1.0" encoding="UTF-8"?>
<svg id="Layer_1" xmlns="http://www.w3.org/2000/svg" version="1.1" viewBox="0 0 7589.508 1690.188">
  <!-- Generator: Adobe Illustrator 30.2.1, SVG Export Plug-In . SVG Version: 2.1.1 Build 1)  -->
  <defs>
    <style>
      .st0 {
        fill: #007bc4;
      }
    </style>
  </defs>
  <path class="st0" d="M875.893,1690.188c-35.963,0-79.981-5.478-128.908-22.952-81.54-29.121-136.549-73.615-163.501-132.245-25.863-56.261-24.882-123.716,2.888-200.601-25.284,31.558-44.316,64.055-56.63,96.709-12.119,32.139-17.78,64.497-16.826,96.175,1.701,56.454,24.725,110.074,64.833,150.981l1.742,1.776-2.385.711c-24.047,7.166-102.005,11.947-192.965-.543-79.079-10.857-190.694-38.069-273.353-106.055C27.143,1505.348-9.437,1409.486,2.065,1289.222l1.16-12.132,1.816,12.051c13.697,90.884,58.547,152.322,92.791,177.319,14.401,10.512,28.374,15.758,39.729,14.958-18.201-22.445-30.745-49.763-37.296-81.236-6.32-30.363-6.837-63.204-1.537-97.608,6.455-41.905,21.267-83.36,42.835-119.884,22.333-37.819,50.959-68.525,82.782-88.8l3.935-2.507-1.737,4.33c-25.33,63.166-28.989,118.287-11.185,168.513,9.746,27.494,26.307,53.908,49.221,78.51,23.641,25.38,54.862,49.72,92.835,72.375-18.392-154.657,64.428-223.402,144.538-289.903,44.623-37.043,86.771-72.031,113.131-120.936,14.148-26.249,22.308-53.98,24.946-84.782,2.96-34.575-1.05-72.161-12.26-114.907l-1.642-6.259,4.228,4.898c52.72,61.075,88.604,118.18,109.704,174.577,13.01,34.775,20.571,69.997,22.472,104.686,2.105,38.391-2.643,77.414-14.111,115.987-13.632,45.854-19.979,87.106-18.863,122.613.89,28.335,6.508,53.085,16.698,73.562,15.44,31.027,36.902,42.768,41.548,45.021,3.905-4.189,23.354-26.874,37.874-77.165,14.905-51.625,27.51-143.699,2.917-289.167-21.652-128.077-17.394-234.464,13.016-325.241,16.839-50.266,42.192-96.016,75.355-135.98,35.194-42.411,80.341-79.708,134.187-110.855l7.146-4.133-5.235,6.383c-.375.457-37.779,46.451-60.668,107.676-13.414,35.88-19.291,69.894-17.469,101.096,2.273,38.918,16.613,73.575,42.619,103.01,12.819,14.508,33.271,22.122,59.226,21.955,26.215-.147,55.521-8.196,84.75-23.277,59.89-30.902,109.394-85.384,139.395-153.409,17.579-39.862,28.284-83.964,31.815-131.081,3.931-52.435-1.04-108.889-14.773-167.797l-1.704-7.309,4.382,6.093c.363.504,36.528,51.394,59.511,136.114,13.493,49.741,19.884,101.264,18.993,153.137-1.112,64.833-13.666,130.394-37.312,194.863-90.432,246.559-33.38,325.049,4.372,376.988l.155.214c-6.478-15.269-13.591-38.023-15.642-67.3-3.946-56.324,11.739-116.039,46.619-177.488,15.148-26.685,29.371-50.939,41.92-72.339,65.545-111.775,98.445-167.879,85.933-262.395l-.98-7.402,3.762,6.449c.176.301,17.692,30.726,28.262,83.352,9.743,48.513,15.44,126.434-12.754,222.144-13.151,44.644-17.884,87.122-14.067,126.254,3.051,31.278,11.542,60.507,25.236,86.875,20.978,40.39,47.976,61.699,53.428,65.736,6.582-6.459,48.521-49.763,74.219-127.755,16.329-49.557,23.006-103.223,19.843-159.507-3.954-70.394-23.397-145.112-57.787-222.079-31.799-71.167-54.458-141.717-67.349-209.691-12.007-63.31-15.922-126.439-11.637-187.634,7.511-107.267,39.631-211.614,98.195-319.002l2.729,1.223c-20.836,58.208-29.732,125.01-26.44,198.549,2.845,63.565,14.592,130.524,34.916,199.017,37.98,128,96.796,229.076,135.266,262.764,24.762,21.684,48.366,28.123,66.461,18.128,18.535-10.238,28.942-36.824,24.746-63.217-3.114-19.586-11.351-39.653-20.073-60.897-22.73-55.368-51.018-124.274-7.393-231.646l4.393-10.81-1.516,11.57c-.045.348-4.343,35.416,14.157,88.959,10.869,31.457,27.364,63.041,49.025,93.878,27.092,38.565,62.388,76.061,104.909,111.446,187.573,156.096,176.307,367.216,132.74,518.583,57.366-48.274,100.276-105.043,127.587-168.805,27.401-63.974,39.893-136.847,37.129-216.595l-.171-4.909,2.884,3.977c27.317,37.668,46.709,77.038,57.636,117.015,10.235,37.443,13.333,76.462,9.239,116.17,18.481-46.504,44.335-87.416,76.959-121.744,33.899-35.672,76.172-65.351,125.644-88.214l1.513,2.574c-.392.285-39.451,29.104-65.441,76.365-15.224,27.685-23.054,56.2-23.271,84.753-.272,35.693,11.422,71.591,34.756,106.693,48.547,73.032,72.318,126.742,77.075,174.153,4.473,44.576-7.763,81.037-23.254,127.198l-.485,1.445c-18.23,54.329-18.678,95.478-1.331,122.299,15.286,23.636,39.817,27.577,42.8,27.974,2.836-1.134,35.741-18.033,13.956-178.148-11.286-82.957-2.572-153.869,27.426-223.167,28.652-66.188,77.201-133.553,157.416-218.421,75.558-79.942,137.123-191.281,164.688-297.83,30.461-117.748,15.911-212.797-40.971-267.64l-8.128-7.836,9.892,5.442c.628.345,63.353,35.408,113.911,110.981,29.694,44.384,49.465,93.861,58.767,147.058,11.62,66.456,6.834,138.923-14.223,215.387-20.942,76.045-33.453,147.078-37.186,211.126-2.985,51.22-.394,98.11,7.701,139.369,11.725,59.764,31.796,90.328,37.665,98.279,2.719-7.697,11.767-31.635,30.218-65.828,20.776-38.504,58.088-98.316,117.857-164.602,26.151-29.002,43.034-61.424,50.179-96.366,5.719-27.965,5.254-57.615-1.382-88.126-11.321-52.048-37.033-89.029-37.292-89.397l-5.814-8.268,7.965,6.223c.331.259,33.455,26.422,65.178,75.419,18.626,28.769,33.15,59.683,43.17,91.881,12.524,40.249,18.004,82.628,16.286,125.959-3.201,80.738-21.715,131.724-35.233,168.953-15.739,43.347-25.239,69.511-.478,106.488,15.105,22.557,39.464,31.087,62.063,21.726,22.207-9.199,39.367-34.07,48.319-70.032,11.164-44.85,9.629-103.943-4.561-175.641-10.796-54.542-18.14-140.496,8.175-240.238,28.146-106.678,87.957-202.167,177.774-283.813l7.161-6.51-4.855,8.372c-.243.419-24.473,42.557-41.075,101.499-9.741,34.582-14.989,68.098-15.598,99.617-.76,39.342,5.747,75.664,19.342,107.959,22.421,53.264,56.554,78.962,91.305,68.742,22.003-6.471,41.439-27.103,53.324-56.605,9.304-23.093,18.368-62.17,8.718-117.189-20.745-118.273-19.537-223.307,3.694-321.105,34.705-146.099,118.688-268.416,249.615-363.554l5.125-3.723-2.911,5.626c-.28.542-28.221,55.044-44.009,127.915-9.264,42.754-12.591,83.373-9.894,120.728,3.368,46.624,16.189,88.268,38.109,123.774,18.247,29.557,40.795,50.082,65.207,59.357,22.677,8.614,45.97,7.374,67.369-3.585,32.845-16.823,56.864-54.452,65.897-103.236,7.384-39.872,8.304-106.375-29.242-196.773l-3.861-9.297,6.404,7.768c.381.462,38.466,47.191,65.591,126.44,15.926,46.532,25.028,95.028,27.056,144.141,2.533,61.385-6.044,123.907-25.493,185.83-86.748,276.197-91.548,325.986-62.989,353.735,4.257,4.136,14.879,4.755,28.42,1.655,15.624-3.577,33.741-11.764,51.016-23.051,31.636-20.671,88.482-70.158,113.744-169.351,25.991-102.055,11.635-227.454-42.67-372.715l-2.174-5.818,4.59,4.184c.578.527,58.338,53.717,106.402,144.618,28.232,53.391,47.66,109.17,57.747,165.787,10.92,61.297,10.853,123.73-.165,185.986l55.573-177.528,1.511,4.196c.174.481,17.35,48.901,19.257,115.689,1.12,39.234-3.163,77.058-12.732,112.42-11.432,42.247-30.48,81.073-56.649,115.492,15.162-7.209,59.14-30.311,97.342-71.812,27.435-29.805,46.572-63.138,56.88-99.073,12.886-44.922,11.938-94.094-2.815-146.15-34.804-122.802-45.528-203.916-35.858-271.226,9.964-69.361,42.978-128.067,107.045-190.348l10.523-10.231-8.237,12.149c-.264.389-26.485,39.613-36.954,102.719-6.146,37.043-5.741,74.953,1.201,112.676,8.682,47.168,27.67,94.187,56.438,139.749,52.12,82.545,104.603,171.453,135.448,262.288,26.815,78.966,36.727,157.016,30.723,243.568,17.452-71.778,54.971-120.623,88.493-164.267,28.531-37.145,53.17-69.224,59.68-107.73,7.133-42.191-9.022-88.117-50.844-144.534l-4.579-6.178,6.565,4.004c.359.22,36.367,22.497,69.053,70.025,19.188,27.9,33.517,58.931,42.591,92.231,11.337,41.604,14.453,86.88,9.262,134.571-4.237,38.929,4.869,72.77,27.843,103.457,20.324,27.152,48.501,48.396,75.749,68.942,48.702,36.723,94.782,71.467,80.442,132.181,6.245-6.749,18.69-22.144,26.848-45.066,6.574-18.473,9.121-38.161,7.57-58.516-1.942-25.484-10.35-52.105-24.989-79.124-24.68-45.553-23.555-93.509,3.344-142.54,21.986-40.079,56.469-71.844,74.994-88.909,5.131-4.727,9.184-8.46,11.625-11.091l2.235,2c-.59.683-58.849,69.053-52.064,133.242,2.746,25.979,15.783,47.979,38.754,65.383,7.291,5.524,14.774,11.044,22.699,16.887,48.079,35.453,102.573,75.637,130.121,130.463,31.093,61.878,21.736,130.975-28.627,211.035,12.548-9.42,41.516-33.766,63.333-71.958,16.703-29.239,26.016-60.77,27.678-93.715,2.079-41.213-7.873-84.797-29.582-129.539-21.909-45.156-35.639-91.719-40.808-138.396-4.137-37.349-2.831-74.851,3.879-111.464,11.432-62.368,34.953-101.096,35.189-101.479l6.049-9.83-3.336,11.05c-.149.494-14.74,50.25,1.567,119.231,9.575,40.507,27.776,79.629,54.098,116.278,32.096,44.693,76.427,85.818,131.813,122.293-6.269-14.466-24.262-61.086-28.521-128.123-3.027-47.627,1.358-96.116,13.031-144.124,14.587-59.986,40.659-119.378,77.494-176.528,22.831-35.422,50.774-71.502,77.799-106.393,40.253-51.973,81.876-105.715,107.324-158.233,13.662-28.194,21.707-53.797,24.594-78.273,3.232-27.406-.036-52.725-9.992-77.403l-1.8-4.461,4.016,2.647c.299.197,30.091,20.199,51.015,65.627,12.267,26.635,19.159,56.695,20.486,89.346,1.655,40.746-5.402,85.667-20.978,133.513-9.423,28.947-14.603,51.585-15.393,67.285-.473,9.395.467,21.092,7.625,23.463,12.929,4.276,41.456-20.613,72.677-63.416,34.438-47.217,64.546-105.048,82.604-158.667,20.49-60.837,32.094-123.995,34.491-187.719,1.918-50.988-2.021-102.452-11.706-152.964-16.496-86.029-44.333-140.159-44.613-140.696l-3.146-6.046,5.394,4.167c.713.55,72.035,56.267,136.805,159.759,38.038,60.778,66.427,125.915,84.375,193.601,22.437,84.607,28.53,173.451,18.114,264.065-19.319,168.07,29.062,248.375,71.747,319.227,21.188,35.168,41.199,68.385,49.354,108.211,8.641,42.206,3.166,87.656-17.248,142.474,8.351-10.525,24.341-34.849,33.165-75.382,7.198-33.076,8.289-70.312,3.238-110.675-6.318-50.502-22.321-106.061-47.563-165.136-25.426-59.505-36.341-123.273-32.442-189.533,3.118-52.979,15.66-107.656,37.279-162.511,36.796-93.366,87.879-155.743,88.391-156.363l2.446,1.721c-.338.571-34.018,58.057-47.707,136.197-8.03,45.837-7.712,89.711.946,130.406,10.814,50.834,34.756,96.841,71.156,136.744,25.073,27.484,50.337,47.177,75.088,58.532,22.058,10.119,43.479,13.242,61.946,9.035,25.586-5.83,44.417-24.84,53.025-53.53,13.883-46.268.972-124.68-76.901-205.996l-5.313-5.55,7.011,3.143c.738.331,74.537,33.967,144.471,112.86,41.072,46.334,72.818,98.991,94.355,156.511,24.745,66.086,35.998,138.79,33.522,216.389,3.922-16.061,11.418-40.201,25.243-67.021,14.432-27.995,32.837-53.414,54.707-75.55,27.333-27.666,60.181-50.249,97.628-67.121l5.346-2.408-3.532,4.679c-.307.406-30.911,41.266-56.911,102.762-15.26,36.092-25.971,72.124-31.838,107.099-7.326,43.677-7.072,85.816.755,125.249,5.62,28.318,15.547,52.953,28.707,71.237,11.944,16.598,26.238,27.757,41.338,32.271,18.335,5.483,36.109.693,50.048-13.481,15.256-15.515,24.552-40.68,26.882-72.773,2.729-37.573-4.055-82.351-20.162-133.088l-1.676-5.276,4.11,3.709c.549.495,55.265,50.35,91.49,124.027,21.304,43.329,32.154,86.308,32.252,127.745.117,50.548-15.854,98.892-47.479,143.752,11.836-3.462,48.149-16.168,82.562-49.617,24.449-23.765,43.18-53.205,55.67-87.505,15.634-42.933,21.486-93.65,17.398-150.746l-.863-12.065,3.783,11.488c23.227,70.499,31.142,142.656,22.892,208.671-8.581,68.653-34.819,130.746-75.878,179.565-43.985,52.299-103.992,89.662-178.355,111.056-81.396,23.418-178.55,27.073-288.758,10.867l-9.62-1.415,9.6-1.55c93.557-15.113,131.287-68.348,135.401-113.128,3.672-39.96-17.712-75.335-53.21-88.027-21.104-7.546-56.592-10.554-105.821,17.97-47.294,27.403-95.53,77.123-143.369,147.778l-2.531-1.606c110.485-186.072-18.201-378.391-53.161-424.785,18.062,144.76-6.001,258.188-71.556,337.181-23.989,28.907-66.867,68.343-134.903,92.059-40.691,14.185-71.564,16.012-71.871,16.029-37.674.002-75.723-9.711-110.117-28.087-35.321-18.871-64.35-45.697-83.95-77.579-17.973-29.235-27.482-61.535-28.264-96.003-.86-37.934,8.985-77.487,29.261-117.565,26.765-52.9,44.132-106.4,51.619-159.014,5.988-42.079,5.706-83.691-.838-123.681-7.942-48.539-23.335-82.958-31.618-98.872,34.541,141.337-27.155,223.067-86.867,302.186-26.27,34.808-53.435,70.801-71.166,110.962-20.387,46.175-29.837,91.007-28.09,133.25,1.398,33.769,9.914,65.979,25.313,95.739,26.25,50.727,63.924,77.092,64.302,77.352l3.694,2.549-4.484.186c-.854.034-86.326,3.211-183.605-23.876-57.173-15.92-107.196-39.024-148.681-68.67-50.104-35.807-87.813-81.302-112.158-135.291-.562,6.526-2.123,17.614-6.439,31.568-6.376,20.61-20.252,51.533-50.155,81.797-30.951,31.324-73.001,56.128-124.981,73.721-62.97,21.312-140.959,32.108-231.847,32.109-1.747,0-3.485-.004-5.242-.012l-4.536-.021,3.654-2.688c50.251-36.959,67.748-95.102,73.578-137.369,6.564-47.593,1.867-101.195-12.858-149.352,4.129,39.64,1.304,76.961-8.433,111.142-10.788,37.875-29.866,71.266-56.702,99.243-57.495,59.942-147.339,91.624-257.016,91.628-20.905,0-42.511-1.149-64.773-3.474l-3.706-.387,2.941-2.289c.294-.229,29.593-23.353,47.893-65.537,10.733-24.741,15.644-51.115,14.595-78.39-1.313-34.133-12.016-69.8-31.809-106.011-19.233-35.188-41.035-75.072-49.786-111.425-7.92-32.905-5.031-60.615,9.181-85.876-6.229,7.78-13.779,19.165-19.66,34.08-11.163,28.312-18.427,75.528,10.366,139.686,13.219,29.456,19.762,65.361,18.422,101.101-1.427,38.094-11.449,73.226-28.982,101.6-27.307,44.191-70.809,68.771-125.803,71.08l-.099.004-.1-.009c-.247-.023-25.019-2.358-55.376-13.008-28.062-9.845-66.811-29.016-92.041-64.437-27.274-38.292-33.697-87.638-19.09-146.666,6.549-26.466,19.582-51.538,33.379-78.083,18.213-35.038,38.855-74.751,49.023-126.462,11.078-56.34,8.047-118.523-9.29-189.768.352,71.203.135,178.015-116.867,270.895-36.012,28.587-63.085,60.465-80.467,94.748-14.921,29.432-22.841,60.843-23.539,93.366-1.734,80.751,40.584,145.094,60.154,162.049l-1.858,2.352c-63.082-45.418-97.785-103.571-103.147-172.844-4.834-62.472,14.36-131.706,57.086-206.08-47.045,62.944-76.259,128.52-84.855,190.866-9.709,70.422,7.433,134.434,49.575,185.113l1.949,2.343-3.047.115c-.699.029-71.648,2.044-144.414-51.988-28.19-20.932-52.394-44.404-71.938-69.765-25.271-32.791-42.764-68.818-51.994-107.079-22.812-94.558,4.125-202.772,80.066-321.906-51.381,60.465-91.661,124.258-119.879,189.897-24.64,57.313-40.188,116.159-46.217,174.9-10.265,100.029,10.965,165.936,11.181,166.59l1.531,4.646-3.872-2.989c-84.506-65.23-141.986-165.128-170.847-296.919-18.42-84.114-21.384-165.764-20.189-223.243-15.79,133.416-39.272,237.992-71.495,318.733-21.488,53.844-47.494,98.421-77.294,132.494-32.614,37.288-70.958,63.385-113.968,77.562l-3.378,1.114,1.561-3.196c21.417-43.854,32.111-88.757,31.785-133.462-.26-35.767-7.535-71.5-21.621-106.207-19.49-48.02-46.862-80.864-56.673-91.723,15.473,72.897,13.776,136.804-5.053,190.031-16.855,47.645-47.834,86.107-89.588,111.231-42.296,25.45-94.949,36.743-148.257,31.794-52.837-4.903-102.723-25.336-140.471-57.532-35.182-30.009-58.811-69.441-68.334-114.034-10.129-47.429-4.729-99.874,16.039-156.042-59.717,88.331-73.385,195.696-55.392,258.579,7.452,26.044,19.87,43.232,35.911,49.707l-1.053,2.808c-154.767-53.698-256.433-145.604-302.174-273.165-20.055-55.929-29.067-118.567-26.787-186.173,1.962-58.179,12.245-119.924,30.583-183.736-91.635,169.47-68.494,303.056-49.819,410.88,9.214,53.201,17.172,99.147,10.109,140.45-7.755,45.351-33.43,80.154-80.801,109.529l-1.091.676-.838-.974c-.118-.138-12.105-13.915-36.144-27.63-22.178-12.653-59.45-27.843-111.069-28.346-37.461-.383-59.656,10.903-83.159,22.832-31.985,16.234-65.06,33.023-138.929,17.851-28.443-5.844-52.305-22.487-70.924-49.472-14.819-21.478-26.359-49.522-34.299-83.355-10.802-46.032-11.925-90.541-11.935-106.731-9.771,18.777-43.453,80.751-91.238,139.089-33.451,40.84-67.177,71.949-100.241,92.468-41.491,25.747-82.061,34.812-120.589,26.941-64.925-13.262-109.228-44.252-131.678-92.108-19.911-42.444-22.589-97.66-7.958-164.113,12.238-55.58,36.855-118.819,71.192-182.878,36.248-67.627,55.396-121.568,60.261-169.757,4.328-42.878-3.189-75.88-11.147-110.82-1.445-6.343-2.913-12.786-4.325-19.371,1.99,63.057-10.324,181.038-109.23,290.803-39.353,43.675-83.826,96.011-113.54,164.568-34.063,78.592-43.23,165-28.027,264.161l.271,1.766-1.786-.039c-18.903-.411-85.296-4.183-146.008-35.44-30.286-15.593-54.817-35.797-72.91-60.05-20.082-26.92-32.394-59.091-36.649-95.73-10.464,39.84-5.933,82.912,13.005,122.151,16.929,35.079,44.754,65.008,72.616,78.107l4.656,2.189-5.103.656c-66.213,8.508-134.172,3.088-196.537-15.68-62.708-18.871-119.607-51.209-164.545-93.519-39.953-37.616-70.215-82.337-89.944-132.921-19.845-50.879-28.554-106.676-25.931-166.018-9.692,31.543-22.879,94.076-20.032,162.385,1.879,45.093,10.485,86.067,25.578,121.786,18.254,43.201,46.152,78.903,82.917,106.114l6.953,5.146-8.28-2.504c-46.15-13.962-86.766-40.388-124.168-80.791-32.268-34.858-56.911-74.33-78.652-109.154-8.136-13.032-15.821-25.341-23.32-36.464-13.625-20.211-28.208-29.756-42.152-27.636-14.758,2.256-27.907,18.146-35.175,42.506-17.232,57.762-.92,151.219,75.617,219.918l1.61,1.445-1.918,1c-.261.137-26.573,13.68-70.509,20.567-14.479,2.27-31.997,3.966-52.006,3.966ZM595.563,1318.549l-3.231,8.432c-30.523,79.633-32.582,149.196-6.122,206.757,26.601,57.869,81.034,101.834,161.784,130.673,75.491,26.961,139.171,25.143,179.301,18.869,36.718-5.739,60.951-16.149,67.764-19.334-76.09-69.429-92.205-163.292-74.835-221.513,7.722-25.881,21.425-42.141,37.597-44.612,10.586-1.617,27.001,2.087,45.093,28.923,7.528,11.166,15.226,23.497,23.376,36.553,42.648,68.31,95.433,152.87,192.924,186.021-33.81-26.813-59.693-61.116-77.001-102.076-15.233-36.051-23.917-77.377-25.812-122.829-3.233-77.592,14.12-147.843,23.747-174.147l3.616-9.88-.711,10.497c-4.271,63.092,4.175,122.289,25.104,175.948,19.566,50.165,49.579,94.518,89.205,131.826,44.602,41.993,101.088,74.094,163.354,92.831,60.42,18.183,126.137,23.756,190.375,16.181-26.929-14.344-53.261-43.477-69.574-77.278-20.459-42.392-24.372-89.205-11.018-131.816l2.287-7.298.639,7.622c3.295,39.312,15.691,73.62,36.842,101.973,17.819,23.886,42.002,43.796,71.879,59.178,58.365,30.048,122.075,34.456,142.916,35.063-14.913-98.996-5.583-185.379,28.508-264.037,29.894-68.973,74.552-121.532,114.064-165.383,112.146-124.458,112.175-259.509,106.968-311.857v-.005c-1.29-7.565-2.298-14.627-3.08-21.587l2.956-.488c.07.322,1.737,8.023,3.099,21.674v.004c2.519,14.74,5.695,28.685,8.767,42.169,8.014,35.187,15.584,68.422,11.207,111.788-4.906,48.593-24.162,102.889-60.602,170.873-34.208,63.82-58.727,126.791-70.906,182.105-14.485,65.792-11.88,120.362,7.744,162.194,22.026,46.952,65.617,77.382,129.563,90.443,37.746,7.709,77.575-1.22,118.386-26.538,32.779-20.337,66.252-51.22,99.49-91.792,56.675-69.183,93.447-143.513,93.812-144.255l3.07-6.25-.225,6.96c-.017.546-1.607,55.313,11.803,112.418,7.856,33.454,19.245,61.146,33.851,82.306,18.161,26.312,41.39,42.532,69.041,48.212,72.846,14.965,105.443-1.583,136.968-17.586,22.443-11.392,45.645-23.165,82.814-23.165.576,0,1.148.003,1.731.008,52.338.511,90.153,15.951,112.659,28.814,21.05,12.032,32.773,23.835,35.937,27.246,45.908-28.749,70.819-62.72,78.361-106.822,6.976-40.794-.941-86.504-10.108-139.432-19.194-110.815-43.081-248.729,56.779-424.812l6.657-11.739-3.917,12.914c-20.692,68.219-32.242,134.189-34.33,196.082-2.267,67.227,6.686,129.489,26.613,185.06,44.066,122.891,140.484,212.483,286.713,266.469-10.87-9.218-19.427-24.135-25.105-43.979-18.88-65.981-3.34-180.322,62.888-271.195l7.132-9.786-4.528,11.229c-24.172,59.944-31.009,115.715-20.321,165.762,9.384,43.942,32.672,82.803,67.347,112.379,37.281,31.799,86.575,51.98,138.801,56.828,52.679,4.891,104.681-6.254,146.434-31.378,41.15-24.761,71.685-62.682,88.305-109.661,19.095-53.979,20.374-119.146,3.8-193.693l-1.11-4.993,3.631,3.604c.364.36,36.716,36.844,60.969,96.536,14.249,35.069,21.612,71.188,21.886,107.349.332,44.103-9.938,88.377-30.536,131.652,41.126-14.245,77.877-39.649,109.278-75.551,29.575-33.814,55.403-78.102,76.766-131.63,35.655-89.343,60.586-208.037,76.217-362.862,1.829-27.834,4.188-44.707,4.212-44.874l2.98.339c-1.302,14.99-2.718,30.075-4.208,44.836-3.481,52.937-5.752,158.162,18.201,267.543,28.286,129.17,84.151,227.488,166.087,292.323-4.545-16.562-18.782-77.435-10.014-163.149,6.043-59.063,21.66-118.225,46.416-175.84,30.935-71.994,76.307-141.761,134.856-207.364l2.364,1.837c-84.615,125.674-115.463,239.363-91.689,337.91,9.131,37.849,26.443,73.496,51.454,105.951,19.376,25.143,43.381,48.421,71.35,69.188,63.26,46.973,125.022,51.097,139.396,51.393-41.221-50.948-57.891-114.833-48.219-184.977,9.558-69.317,44.348-142.528,100.61-211.719l2.436,1.742c-99.751,159.37-92.78,295.623,18.997,385.658-21.427-27.082-50.909-83.689-49.449-151.68.708-32.975,8.736-64.822,23.863-94.656,17.577-34.672,44.924-66.885,81.276-95.742,116.614-92.572,116.079-199.289,115.726-269.907-.02-3.732-.037-7.36-.037-10.873v-11.654l2.951,11.274c20.071,76.677,24.104,143.066,12.326,202.962-10.251,52.133-30.999,92.05-49.305,127.268-13.713,26.382-26.665,51.3-33.129,77.419-14.386,58.133-8.124,106.646,18.611,144.19,13.664,19.188,40.46,45.751,90.519,63.332,29.064,10.207,52.924,12.701,54.639,12.87,53.907-2.29,96.532-26.375,123.275-69.655,17.26-27.933,27.128-62.559,28.536-100.135,1.323-35.288-5.127-70.716-18.161-99.76-29.26-65.198-21.782-113.301-10.357-142.173,12.409-31.357,31.488-47.004,32.295-47.655l9.732-7.858-7.6,9.937c-48.31,63.161-9.689,133.814,31.199,208.618,20.035,36.654,30.861,72.8,32.177,107.429,1.054,27.742-3.959,54.569-14.899,79.734-15.305,35.205-38.174,57.355-46.006,64.262,136.528,13.54,248.581-17.518,315.806-87.604,26.494-27.621,45.329-60.589,55.982-97.987,10.86-38.126,13.024-80.233,6.432-125.152l2.897-.722c18.622,52.151,25.117,112.406,17.818,165.315-8.221,59.612-32.81,106.759-71.211,136.68h.782c90.529,0,168.152-10.733,230.802-31.923,51.53-17.428,93.188-41.968,123.817-72.937,56.401-57.028,56.127-117.147,56.117-117.747l-.118-7.613,2.997,6.998c23.998,56.033,62.244,103.085,113.675,139.85,41.188,29.44,90.88,52.396,147.699,68.226,84.461,23.531,159.962,24.13,178.456,23.887-10.087-7.899-39.808-33.461-61.687-75.681-15.629-30.159-24.277-62.803-25.707-97.025-1.784-42.733,7.75-88.047,28.339-134.679,17.871-40.479,45.143-76.614,71.517-111.558,30.326-40.183,61.685-81.733,79.901-130.902,20.448-55.196,21.617-114.021,3.572-179.837l-2.545-9.283,5.249,8.069c.264.403,26.368,41.125,37.637,109.8,6.612,40.305,6.911,82.239.889,124.639-7.525,52.975-24.996,106.825-51.928,160.058-20.052,39.632-29.787,78.708-28.939,116.142.769,33.929,10.129,65.724,27.82,94.5,19.321,31.429,47.957,57.884,82.809,76.504,33.96,18.146,71.521,27.735,108.621,27.735.222-.014,30.759-1.833,71.078-15.903,37.17-12.972,90.504-39.312,133.498-91.138,65.812-79.328,89.416-193.846,70.153-340.373l-.724-5.494,3.663,4.726c28.445,36.653,160.453,222.723,69.028,409.062,43.149-59.678,86.562-102.385,129.272-127.133,27.721-16.063,69.02-32.259,108.335-18.199,36.809,13.162,58.987,49.782,55.188,91.127-4.079,44.388-40.166,96.845-128.68,114.168,41.484,5.718,81.085,8.574,118.62,8.574,58.348.002,111.729-6.896,159.619-20.674,73.779-21.226,133.293-58.27,176.889-110.104,40.686-48.375,66.688-109.929,75.196-178.006,7.749-61.999,1.135-129.478-19.12-195.879,2.519,52.674-3.637,99.735-18.334,140.039-12.667,34.739-31.669,64.56-56.477,88.637-42.264,41.018-87.417,51.247-87.868,51.346l-3.846.84,2.311-3.187c32.854-45.277,49.456-94.18,49.348-145.345-.087-40.967-10.822-83.494-31.905-126.399-30.161-61.377-73.249-106.117-86.688-119.244,14.98,48.837,21.227,92.106,18.57,128.687-2.383,32.812-11.973,58.631-27.735,74.66-14.753,15.007-33.591,20.068-53.047,14.252-15.738-4.705-30.579-16.252-42.913-33.392-13.408-18.632-23.511-43.67-29.215-72.406-7.899-39.805-8.156-82.323-.762-126.376,5.91-35.215,16.696-71.483,32.056-107.798,21.102-49.887,45.229-86.283,53.918-98.688-34.952,16.43-65.722,37.965-91.523,64.068-21.651,21.903-39.878,47.056-54.174,74.761-24.359,47.207-28.899,85.971-28.942,86.356l-2.988-.259c5.285-84.866-5.596-164.131-32.34-235.593-21.392-57.163-52.928-109.5-93.73-155.554-56.625-63.911-115.766-97.943-136.141-108.542,73.68,80.074,85.679,156.939,71.902,202.857-8.803,29.338-28.935,49.6-55.232,55.592-19.117,4.357-41.202,1.163-63.864-9.234-25.119-11.523-50.706-31.453-76.053-59.237-36.778-40.316-60.965-86.812-71.887-138.196-8.733-41.086-9.048-85.358-.938-131.588,9.497-54.139,28.53-98.436,39.584-120.979-17.037,23.546-50.698,74.406-77.02,141.223-21.489,54.55-33.952,108.905-37.044,161.556-3.862,65.772,6.974,129.066,32.208,188.123,25.389,59.418,41.475,115.323,47.81,166.162,5.075,40.729,3.941,78.324-3.371,111.741-12.488,57.066-38.296,81.793-39.388,82.817l-4.846,4.546,2.423-6.188c22.627-57.769,29.008-104.98,20.083-148.578-8.051-39.321-27.934-72.324-48.984-107.266-20.649-34.274-44.054-73.123-59.237-123.508-17.358-57.601-21.584-122.239-12.92-197.61,10.371-90.212,4.31-178.657-18.014-262.877-17.86-67.384-46.112-132.234-83.974-192.751-54.377-86.919-113.362-139.977-130.943-154.803,7.681,16.547,28.516,65.473,41.907,135.245,9.739,50.747,13.703,102.452,11.782,153.681-2.402,64.037-14.06,127.505-34.649,188.639-18.151,53.896-48.413,112.023-83.023,159.476-23.629,32.396-54.045,65.103-72.068,65.107-1.404,0-2.729-.198-3.974-.61-14.713-4.872-12.688-37.558,5.856-94.524,15.446-47.449,22.458-91.967,20.839-132.317-1.293-32.239-8.067-61.906-20.137-88.178-15.95-34.723-37.105-54.323-45.909-61.446,8.658,23.602,11.372,47.852,8.293,73.952-2.927,24.813-11.062,50.729-24.874,79.23-25.585,52.799-67.305,106.666-107.651,158.761-26.985,34.841-54.89,70.869-77.649,106.181-36.632,56.835-62.563,115.885-77.076,175.511-11.607,47.693-15.977,95.863-12.986,143.172,5.092,80.572,30.129,131.37,30.381,131.874l2.467,4.924-4.623-2.993c-57.764-37.402-103.863-79.791-137.015-125.985-26.548-36.994-44.9-76.497-54.546-117.411-11.995-50.876-7.353-91.458-3.907-109.874-7.558,15.024-21.635,47.108-29.675,91.066-6.642,36.312-7.926,73.507-3.814,110.549,5.139,46.304,18.771,92.506,40.515,137.323,21.946,45.232,31.997,89.334,29.875,131.083-1.698,33.432-11.162,65.422-28.128,95.08-28.865,50.467-70.081,77.052-70.493,77.314l-5.845,3.717,3.782-5.802c53.367-81.862,64.039-152.045,32.629-214.559-27.226-54.185-81.414-94.142-129.222-129.396-7.933-5.849-15.424-11.373-22.731-16.91-23.659-17.927-37.092-40.627-39.927-67.469-1.997-18.917.509-50.349,23.791-92.665,6.045-10.986,12.292-20.493,17.432-27.741-18.794,17.336-51.411,48.048-72.397,86.302-26.376,48.08-27.498,95.07-3.335,139.668,33.69,62.186,28.142,110.578,17.554,140.225-11.49,32.173-30.683,49.332-31.494,50.047l-3.854,3.396,1.422-4.937c8.164-28.333,3.96-52.503-13.232-76.066-15.442-21.165-39.374-39.209-64.711-58.313-27.415-20.671-55.764-42.047-76.345-69.54-23.449-31.325-32.746-65.86-28.423-105.579,5.146-47.28,2.068-92.15-9.147-133.363-8.971-32.962-23.139-63.677-42.11-91.294-23.621-34.382-48.966-55.398-61.038-64.306,85.242,119.446,41.286,176.656-14.07,248.726-37.287,48.546-79.55,103.57-93.231,189.422-.935,8.953-2.016,17.926-3.205,26.589l-2.98-.327c.744-8.983,1.828-17.978,3.224-26.733,10.15-96.937,1.18-182.475-28.241-269.114-30.746-90.54-83.123-179.262-135.146-261.652-28.993-45.918-48.127-93.326-56.87-140.906-6.998-38.084-7.391-76.358-1.168-113.759,7.496-45.06,22.967-78.089,31.477-93.705-58.185,58.792-88.52,114.841-97.948,180.482-9.606,66.867,1.093,147.609,35.774,269.981,14.916,52.627,15.856,102.373,2.795,147.858-10.45,36.396-29.835,70.14-57.611,100.295-47.246,51.288-103.237,74.724-103.798,74.955l-5.3,2.183,3.552-4.499c27.822-35.259,47.945-75.348,59.808-119.154,9.495-35.065,13.751-72.583,12.649-111.509-1.553-54.815-13.454-97.145-17.637-110.462l-61.638,196.896-2.893-.785c16.536-71.368,18.569-143.229,6.045-213.584-10.021-56.299-29.335-111.773-57.404-164.881-39.858-75.413-86.396-124.725-101.118-139.354,52.63,143.224,66.25,267.119,40.476,368.324-25.514,100.177-83.01,150.213-115.011,171.124-38.711,25.292-73.31,30.613-83.168,21.033-8.464-8.225-13.166-17.646-15.245-30.547-2.275-14.126-1.323-32.489,2.996-57.791,8.329-48.786,29.904-126.561,74.469-268.447,19.335-61.562,27.867-123.711,25.36-184.72-2.006-48.81-11.042-97.008-26.857-143.256-20.03-58.57-46.06-99.239-58.249-116.437,33.421,85.634,32.265,149.076,25.103,187.749-9.204,49.707-33.8,88.109-67.479,105.36-22.175,11.357-46.313,12.644-69.803,3.719-25.035-9.511-48.098-30.461-66.694-60.585-22.183-35.932-35.153-78.048-38.552-125.176-2.715-37.65.641-78.566,9.973-121.61,12.983-59.885,34.137-107.441,41.574-123.093-127.531,94.185-209.459,214.677-243.56,358.231-23.135,97.392-24.332,202.03-3.658,319.893,5.395,30.753,8.23,76.332-8.89,118.828-12.231,30.358-32.372,51.629-55.26,58.362-36.361,10.694-71.844-15.646-94.917-70.456-13.764-32.696-20.35-69.445-19.576-109.225.619-31.784,5.911-65.564,15.73-100.402,12.495-44.335,29.288-79.231,37.065-94.189-85.722,79.9-143,172.814-170.302,276.293-26.17,99.19-18.867,184.658-8.133,238.891,14.277,72.132,15.8,131.666,4.529,176.948-9.187,36.907-26.973,62.506-50.082,72.079-23.977,9.934-49.767.972-65.704-22.829-25.607-38.24-15.36-66.462.152-109.182,13.45-37.043,31.872-87.776,35.054-168.048,1.704-42.961-3.723-84.975-16.129-124.874-9.928-31.926-24.321-62.581-42.782-91.114-22.375-34.583-45.43-57.683-56.991-68.227,8.309,13.994,24.073,43.954,32.316,81.776,6.742,30.934,7.221,61.014,1.425,89.405-7.247,35.498-24.373,68.414-50.903,97.835-113.934,126.354-148.022,230.946-148.353,231.988l-.811,2.551-1.752-2.022c-.259-.298-25.974-30.622-39.934-101.479-8.178-41.513-10.812-88.677-7.829-140.18,3.727-64.328,16.277-135.657,37.303-212.007,20.929-75.997,25.699-147.991,14.177-213.982-9.214-52.769-28.809-101.851-58.242-145.881-38.025-56.884-82.97-90.633-102.745-103.774,50.644,56.657,62.545,148.971,33.359,261.792-27.686,107.018-89.522,218.846-165.411,299.139-79.965,84.604-128.338,151.7-156.844,217.553-29.771,68.774-38.416,139.179-27.206,221.57,23.168,170.283-14.809,181.164-16.437,181.544l-.24.056-.246-.023c-1.146-.112-28.264-3.037-45.292-29.315-17.901-27.625-17.574-69.659.973-124.934l.485-1.446c15.377-45.819,27.522-82.009,23.113-125.944-4.706-46.897-28.327-100.188-76.588-172.791-23.685-35.631-35.548-72.114-35.258-108.438.232-29.066,8.203-58.069,23.692-86.204,18.349-33.331,43.119-57.594,56.575-69.332-44.332,21.913-82.483,49.53-113.538,82.208-35.002,36.832-62.151,81.312-80.693,132.207l-4.859,13.338,1.964-14.059c6.08-43.514,3.497-86.305-7.678-127.188-10.446-38.217-28.706-75.888-54.305-112.046,2.106,78.27-10.511,149.886-37.522,212.949-28.094,65.592-72.574,123.824-132.203,173.078l-3.779,3.121,1.385-4.702c44.429-150.811,57.869-363.47-130.406-520.151-42.775-35.597-78.283-73.334-105.54-112.164-21.825-31.093-38.44-62.954-49.384-94.699-13.093-37.981-14.839-66.839-14.698-80.811-16.662,44.046-22.473,85.016-17.762,124.983,4.369,37.06,17.191,68.293,28.503,95.848,8.79,21.411,17.092,41.635,20.261,61.566,4.388,27.598-6.656,55.487-26.259,66.314-19.286,10.65-44.104,4.082-69.887-18.497-38.795-33.973-98.024-135.621-136.166-264.167-20.393-68.728-32.181-135.929-35.037-199.737-2.996-66.918,4.056-128.31,20.971-182.794-53.054,101.5-82.35,200.494-89.465,302.1-4.268,60.938-.368,123.808,11.591,186.865,12.848,67.745,35.437,138.072,67.141,209.026,34.561,77.349,54.092,152.465,58.051,223.263,3.17,56.682-3.577,110.734-20.053,160.659-28.073,85.065-75.385,129.258-75.859,129.695l-.876.805-.984-.669c-.313-.214-31.618-21.866-55.305-67.393-13.9-26.715-22.522-56.322-25.626-87.999-3.876-39.55.89-82.45,14.163-127.511,28-95.052,22.372-172.406,12.72-220.561-7.475-37.29-18.446-63.299-24.163-75.217,9.681,90.583-23.357,146.928-87.314,255.996-12.544,21.391-26.762,45.637-41.899,72.303-34.583,60.926-50.139,120.073-46.235,175.797,3.106,44.34,17.949,73.429,24.186,83.878,1.062,1.605,2.005,3.077,2.848,4.444l-2.491,1.668c-.047-.064-1.162-1.608-2.933-4.575-3.447-5.217-7.379-10.627-11.543-16.354-38.127-52.454-95.745-131.724-4.761-379.786,23.519-64.124,36.011-129.325,37.127-193.792.894-51.575-5.449-102.803-18.852-152.26-18.021-66.493-44.185-111.993-54.584-128.456,12.414,56.304,16.794,110.317,13.02,160.664-3.557,47.458-14.345,91.892-32.063,132.067-30.275,68.651-80.266,123.649-140.763,154.865-29.647,15.297-59.423,23.462-86.109,23.611-.247.001-.498.002-.745.002-26.47,0-47.461-7.935-60.746-22.971-26.471-29.96-41.062-65.241-43.368-104.862-1.841-31.632,4.109-66.068,17.683-102.352,18.188-48.619,45.455-87.697,56.369-102.288-50.604,30.161-93.203,65.879-126.708,106.255-32.925,39.677-58.098,85.103-74.819,135.017-30.249,90.297-34.469,196.209-12.902,323.789,10.914,64.556,15.497,124.133,13.623,177.077-1.501,42.398-7.124,80.67-16.711,113.753-16.379,56.512-38.357,78.006-39.284,78.893l-.703.672-.901-.367c-1.055-.431-26.04-10.953-43.888-46.641-10.433-20.861-16.194-46.036-17.123-74.827-1.158-35.878,5.228-77.522,18.98-123.778,11.369-38.241,16.076-76.922,13.991-114.967-1.885-34.386-9.383-69.309-22.287-103.8-20.411-54.557-54.781-109.826-104.985-168.793,10.081,40.521,13.6,76.461,10.754,109.688-2.673,31.219-10.947,59.332-25.295,85.95-26.636,49.416-70.975,86.225-113.854,121.819-39.885,33.109-81.127,67.345-109.259,112.146-31.578,50.291-42.65,108.552-33.847,178.11l.384,3.034-2.634-1.554c-39.409-23.242-71.751-48.299-96.129-74.472-23.196-24.902-39.969-51.668-49.853-79.551-17.644-49.772-14.542-104.197,9.496-166.24-29.854,20.007-56.711,49.379-77.881,85.227-21.375,36.197-36.056,77.283-42.453,118.814-5.245,34.049-4.737,66.53,1.51,96.541,6.658,31.991,19.585,59.6,38.42,82.059l1.697,2.023-2.607.421c-12.769,2.067-28.208-3.189-44.649-15.19-33.197-24.231-76.209-82.142-92.001-167.446-7.93,113.633,28.584,204.554,108.631,270.391,82.116,67.539,193.16,94.596,271.855,105.399,87.667,12.037,163.006,8.009,189.289,1.305-39.545-41.211-62.222-94.792-63.919-151.168-.966-32.07,4.759-64.815,17.017-97.323,13.343-35.384,34.486-70.562,62.844-104.558l5.784-6.934Z"/>
</svg>